<?xml version="1.0" encoding="utf-8"?>
<!-- Generator: Adobe Illustrator 26.0.1, SVG Export Plug-In . SVG Version: 6.00 Build 0)  -->
<svg version="1.2" baseProfile="tiny" id="g-countries-Artboard_4-interactions-img" xmlns="http://www.w3.org/2000/svg" xmlns:xlink="http://www.w3.org/1999/xlink"
	 x="0px" y="0px" viewBox="0 0 434.701 497.234" overflow="visible" xml:space="preserve">
<g>
	<g id="africa_00000032624476635687064110000000190437504288230785_">
		<path fill="#FF5892" fill-opacity="0.502" d="M83.294-379.239c1.799,0,3.524-0.715,4.795-1.986
			c1.272-1.272,1.986-2.997,1.986-4.795c0-1.799-0.715-3.524-1.986-4.795c-1.272-1.272-2.997-1.986-4.795-1.986
			c-1.799,0-3.524,0.715-4.795,1.986c-1.272,1.272-1.986,2.997-1.986,4.795c0,1.798,0.715,3.524,1.986,4.795
			C79.771-379.953,81.496-379.239,83.294-379.239z"/>
		<path fill="#FF5892" fill-opacity="0.502" d="M55.639-196.728c1.799,0,3.524-0.715,4.795-1.986
			c1.272-1.272,1.986-2.997,1.986-4.795c0-1.799-0.715-3.524-1.986-4.795c-1.272-1.272-2.997-1.986-4.795-1.986
			c-1.799,0-3.524,0.715-4.795,1.986c-1.272,1.272-1.986,2.997-1.986,4.795c0,1.799,0.715,3.524,1.986,4.795
			C52.116-197.442,53.841-196.728,55.639-196.728z"/>
		<path fill="#FF5892" fill-opacity="0.502" d="M43.762-273.85c1.799,0,3.524-0.715,4.795-1.986
			c1.272-1.272,1.986-2.997,1.986-4.795c0-1.799-0.715-3.524-1.986-4.795c-1.272-1.272-2.997-1.986-4.795-1.986
			c-1.799,0-3.524,0.715-4.795,1.986c-1.272,1.272-1.986,2.997-1.986,4.795c0,1.798,0.715,3.524,1.986,4.795
			C40.238-274.565,41.963-273.85,43.762-273.85z"/>
		<path fill="#FF5892" fill-opacity="0.502" d="M135.528-237.746c1.799,0,3.524-0.715,4.795-1.986s1.986-2.997,1.986-4.795
			c0-1.799-0.715-3.524-1.986-4.795c-1.272-1.272-2.997-1.986-4.795-1.986c-1.799,0-3.524,0.715-4.795,1.986
			c-1.272,1.272-1.986,2.997-1.986,4.795c0,1.798,0.715,3.524,1.986,4.795S133.729-237.746,135.528-237.746z"/>
		<path fill="#FF5892" fill-opacity="0.502" d="M40.571-237.915c1.799,0,3.524-0.715,4.795-1.986
			c1.272-1.272,1.986-2.997,1.986-4.795c0-1.799-0.715-3.524-1.986-4.795c-1.272-1.272-2.997-1.986-4.795-1.986
			c-1.799,0-3.524,0.715-4.795,1.986c-1.272,1.272-1.986,2.997-1.986,4.795c0,1.798,0.715,3.524,1.986,4.795
			C37.047-238.63,38.772-237.915,40.571-237.915z"/>
		<path fill="#FF5892" fill-opacity="0.502" d="M34.752-219.933c1.799,0,3.524-0.715,4.795-1.986
			c1.272-1.272,1.986-2.997,1.986-4.795c0-1.799-0.715-3.524-1.986-4.795c-1.272-1.272-2.997-1.986-4.795-1.986
			c-1.799,0-3.524,0.715-4.795,1.986c-1.272,1.272-1.986,2.997-1.986,4.795c0,1.799,0.715,3.524,1.986,4.795
			S32.954-219.933,34.752-219.933z"/>
		<path fill="#FF5892" fill-opacity="0.502" d="M48.934-248.46c1.799,0,3.524-0.715,4.795-1.986
			c1.272-1.272,1.986-2.997,1.986-4.795c0-1.798-0.715-3.524-1.986-4.795c-1.272-1.272-2.997-1.986-4.795-1.986
			c-1.799,0-3.524,0.715-4.795,1.986c-1.272,1.272-1.986,2.997-1.986,4.795c0,1.799,0.715,3.524,1.986,4.795
			C45.411-249.175,47.136-248.46,48.934-248.46z"/>
		<path fill="#FF5892" fill-opacity="0.502" d="M54.023-385.946c1.799,0,3.524-0.715,4.795-1.986
			c1.272-1.272,1.986-2.997,1.986-4.795c0-1.798-0.715-3.524-1.986-4.795c-1.272-1.272-2.997-1.986-4.795-1.986
			s-3.524,0.715-4.795,1.986c-1.272,1.272-1.986,2.997-1.986,4.795c0,1.799,0.715,3.524,1.986,4.795
			C50.499-386.66,52.225-385.946,54.023-385.946z"/>
		<path fill="#FF5892" fill-opacity="0.502" d="M38.079-185.136c1.799,0,3.524-0.715,4.795-1.986
			c1.272-1.272,1.986-2.997,1.986-4.795c0-1.798-0.715-3.524-1.986-4.795c-1.272-1.272-2.997-1.986-4.795-1.986
			c-1.799,0-3.524,0.715-4.795,1.986c-1.272,1.272-1.986,2.997-1.986,4.795c0,1.799,0.715,3.524,1.986,4.795
			C34.555-185.851,36.28-185.136,38.079-185.136z"/>
		<path fill="#FF5892" fill-opacity="0.502" d="M40.738-208.065c1.799,0,3.524-0.715,4.795-1.986
			c1.272-1.272,1.986-2.997,1.986-4.795c0-1.799-0.715-3.524-1.986-4.795c-1.272-1.272-2.997-1.986-4.795-1.986
			s-3.524,0.715-4.795,1.986c-1.272,1.272-1.986,2.997-1.986,4.795c0,1.798,0.715,3.524,1.986,4.795
			C37.214-208.779,38.939-208.065,40.738-208.065z"/>
		<path fill="#FF5892" fill-opacity="0.502" d="M41.499-294.148c1.799,0,3.524-0.715,4.795-1.986
			c1.272-1.272,1.986-2.997,1.986-4.795c0-1.799-0.715-3.524-1.986-4.795c-1.272-1.272-2.997-1.986-4.795-1.986
			s-3.524,0.715-4.795,1.986c-1.272,1.272-1.986,2.997-1.986,4.795c0,1.798,0.715,3.524,1.986,4.795
			C37.975-294.863,39.701-294.148,41.499-294.148z"/>
		<path fill="#FF5892" fill-opacity="0.502" d="M33.178-205.596c1.799,0,3.524-0.715,4.795-1.986
			c1.272-1.272,1.986-2.997,1.986-4.795c0-1.799-0.715-3.524-1.986-4.795c-1.272-1.272-2.997-1.986-4.795-1.986
			c-1.799,0-3.524,0.715-4.795,1.986c-1.272,1.272-1.986,2.997-1.986,4.795c0,1.798,0.715,3.524,1.986,4.795
			C29.654-206.31,31.379-205.596,33.178-205.596z"/>
		<path fill="#FF5892" fill-opacity="0.502" d="M65.828-251.276c1.799,0,3.524-0.715,4.795-1.986
			c1.272-1.272,1.986-2.997,1.986-4.795c0-1.799-0.715-3.524-1.986-4.795c-1.272-1.272-2.997-1.986-4.795-1.986
			c-1.799,0-3.524,0.715-4.795,1.986c-1.272,1.272-1.986,2.997-1.986,4.795c0,1.798,0.715,3.524,1.986,4.795
			C62.304-251.99,64.029-251.276,65.828-251.276z"/>
		<path fill="#FF5892" fill-opacity="0.502" d="M48.34-205.919c1.799,0,3.524-0.715,4.795-1.986
			c1.272-1.272,1.986-2.997,1.986-4.795c0-1.798-0.715-3.524-1.986-4.795c-1.272-1.272-2.997-1.986-4.795-1.986
			c-1.799,0-3.524,0.715-4.795,1.986c-1.272,1.272-1.986,2.997-1.986,4.795c0,1.799,0.715,3.524,1.986,4.795
			C44.816-206.633,46.541-205.919,48.34-205.919z"/>
		<path fill="#FF5892" fill-opacity="0.502" d="M49.883-287.402c1.799,0,3.524-0.715,4.795-1.986
			c1.272-1.272,1.986-2.997,1.986-4.795c0-1.798-0.715-3.524-1.986-4.795c-1.272-1.272-2.997-1.986-4.795-1.986
			c-1.799,0-3.524,0.715-4.795,1.986c-1.272,1.272-1.986,2.997-1.986,4.795c0,1.799,0.715,3.524,1.986,4.795
			C46.36-288.117,48.085-287.402,49.883-287.402z"/>
		<path fill="#FF5892" fill-opacity="0.502" d="M78.404-376.693c1.799,0,3.524-0.715,4.795-1.986
			c1.272-1.272,1.986-2.997,1.986-4.795s-0.715-3.524-1.986-4.795c-1.272-1.272-2.997-1.986-4.795-1.986
			c-1.799,0-3.524,0.715-4.795,1.986c-1.272,1.272-1.986,2.997-1.986,4.795s0.715,3.524,1.986,4.795
			C74.88-377.408,76.605-376.693,78.404-376.693z"/>
		<path fill="#FF5892" fill-opacity="0.502" d="M84.775-215.872c1.799,0,3.524-0.715,4.795-1.986
			c1.272-1.272,1.986-2.997,1.986-4.795c0-1.799-0.715-3.524-1.986-4.795c-1.272-1.272-2.997-1.986-4.795-1.986
			c-1.799,0-3.524,0.715-4.795,1.986c-1.272,1.272-1.986,2.997-1.986,4.795c0,1.798,0.715,3.524,1.986,4.795
			C81.252-216.586,82.977-215.872,84.775-215.872z"/>
		<path fill="#FF5892" fill-opacity="0.502" d="M37.86-280.542c1.799,0,3.524-0.715,4.795-1.986
			c1.272-1.272,1.986-2.997,1.986-4.795s-0.715-3.524-1.986-4.795c-1.272-1.272-2.997-1.986-4.795-1.986s-3.524,0.715-4.795,1.986
			c-1.272,1.272-1.986,2.997-1.986,4.795s0.715,3.524,1.986,4.795C34.336-281.256,36.061-280.542,37.86-280.542z"/>
		<path fill="#FF5892" fill-opacity="0.502" d="M35.472-250.653c1.799,0,3.524-0.715,4.795-1.986
			c1.272-1.272,1.986-2.997,1.986-4.795c0-1.799-0.715-3.524-1.986-4.795c-1.272-1.272-2.997-1.986-4.795-1.986
			c-1.799,0-3.524,0.715-4.795,1.986c-1.272,1.272-1.986,2.997-1.986,4.795c0,1.798,0.715,3.524,1.986,4.795
			C31.948-251.367,33.673-250.653,35.472-250.653z"/>
		<path fill="#FF5892" fill-opacity="0.502" d="M163.235-308.331c1.799,0,3.524-0.715,4.795-1.986
			c1.272-1.272,1.986-2.997,1.986-4.795c0-1.799-0.715-3.524-1.986-4.795c-1.272-1.272-2.997-1.986-4.795-1.986
			c-1.798,0-3.524,0.715-4.795,1.986s-1.986,2.997-1.986,4.795c0,1.798,0.715,3.524,1.986,4.795
			C159.711-309.046,161.437-308.331,163.235-308.331z"/>
		<path fill="#FF5892" fill-opacity="0.502" d="M37.297-272.727c1.799,0,3.524-0.715,4.795-1.986
			c1.272-1.272,1.986-2.997,1.986-4.795c0-1.799-0.715-3.524-1.986-4.795c-1.272-1.272-2.997-1.986-4.795-1.986
			c-1.799,0-3.524,0.715-4.795,1.986c-1.272,1.272-1.986,2.997-1.986,4.795c0,1.798,0.715,3.524,1.986,4.795
			C33.773-273.442,35.498-272.727,37.297-272.727z"/>
		<path fill="#FF5892" fill-opacity="0.502" d="M41.259-287.195c1.799,0,3.524-0.715,4.795-1.986
			c1.272-1.272,1.986-2.997,1.986-4.795s-0.715-3.524-1.986-4.795c-1.272-1.272-2.997-1.986-4.795-1.986
			c-1.799,0-3.524,0.715-4.795,1.986c-1.272,1.272-1.986,2.997-1.986,4.795s0.715,3.524,1.986,4.795
			C37.736-287.909,39.461-287.195,41.259-287.195z"/>
		<path fill="#FF5892" fill-opacity="0.502" d="M39.58-243.053c1.799,0,3.524-0.715,4.795-1.986
			c1.272-1.272,1.986-2.997,1.986-4.795c0-1.798-0.715-3.524-1.986-4.795c-1.272-1.272-2.997-1.986-4.795-1.986
			c-1.799,0-3.524,0.715-4.795,1.986c-1.272,1.272-1.986,2.997-1.986,4.795c0,1.799,0.715,3.524,1.986,4.795
			C36.057-243.768,37.782-243.053,39.58-243.053z"/>
		<path fill="#FF5892" fill-opacity="0.502" d="M36.723-244.676c1.799,0,3.524-0.715,4.795-1.986
			c1.272-1.272,1.986-2.997,1.986-4.795c0-1.799-0.715-3.524-1.986-4.795c-1.272-1.272-2.997-1.986-4.795-1.986
			c-1.799,0-3.524,0.715-4.795,1.986c-1.272,1.272-1.986,2.997-1.986,4.795c0,1.798,0.715,3.524,1.986,4.795
			C33.199-245.391,34.925-244.676,36.723-244.676z"/>
		<path fill="#FF5892" fill-opacity="0.502" d="M43.877-255.414c1.799,0,3.524-0.715,4.795-1.986
			c1.272-1.272,1.986-2.997,1.986-4.795c0-1.798-0.715-3.524-1.986-4.795c-1.272-1.272-2.997-1.986-4.795-1.986
			c-1.799,0-3.524,0.715-4.795,1.986c-1.272,1.272-1.986,2.997-1.986,4.795c0,1.799,0.715,3.524,1.986,4.795
			C40.353-256.128,42.078-255.414,43.877-255.414z"/>
		<path fill="#FF5892" fill-opacity="0.502" d="M42.5-212.349c1.799,0,3.524-0.715,4.795-1.986s1.986-2.997,1.986-4.795
			c0-1.798-0.715-3.524-1.986-4.795s-2.997-1.986-4.795-1.986c-1.799,0-3.524,0.715-4.795,1.986
			c-1.272,1.272-1.986,2.997-1.986,4.795c0,1.799,0.715,3.524,1.986,4.795C38.977-213.063,40.702-212.349,42.5-212.349z"/>
		<path fill="#FF5892" fill-opacity="0.502" d="M35.545-252.029c1.799,0,3.524-0.715,4.795-1.986s1.986-2.997,1.986-4.795
			c0-1.799-0.715-3.524-1.986-4.795c-1.272-1.272-2.997-1.986-4.795-1.986c-1.799,0-3.524,0.715-4.795,1.986
			c-1.272,1.272-1.986,2.997-1.986,4.795c0,1.798,0.715,3.524,1.986,4.795S33.746-252.029,35.545-252.029z"/>
		<path fill="#FF5892" fill-opacity="0.502" d="M125.434-401.613c1.799,0,3.524-0.715,4.795-1.986
			c1.272-1.272,1.986-2.997,1.986-4.795c0-1.799-0.715-3.524-1.986-4.795c-1.272-1.272-2.997-1.986-4.795-1.986
			c-1.799,0-3.524,0.715-4.795,1.986c-1.272,1.272-1.986,2.997-1.986,4.795c0,1.798,0.715,3.524,1.986,4.795
			C121.91-402.328,123.635-401.613,125.434-401.613z"/>
		<path fill="#FF5892" fill-opacity="0.502" d="M40.842-298.647c1.799,0,3.524-0.715,4.795-1.986
			c1.272-1.272,1.986-2.997,1.986-4.795c0-1.798-0.715-3.524-1.986-4.795c-1.272-1.272-2.997-1.986-4.795-1.986
			c-1.799,0-3.524,0.715-4.795,1.986c-1.272,1.272-1.986,2.997-1.986,4.795c0,1.799,0.715,3.524,1.986,4.795
			C37.319-299.362,39.044-298.647,40.842-298.647z"/>
		<path fill="#FF5892" fill-opacity="0.502" d="M37.568-202.927c1.799,0,3.524-0.715,4.795-1.986
			c1.272-1.272,1.986-2.997,1.986-4.795c0-1.798-0.715-3.524-1.986-4.795c-1.272-1.272-2.997-1.986-4.795-1.986
			c-1.799,0-3.524,0.715-4.795,1.986c-1.272,1.272-1.986,2.997-1.986,4.795c0,1.799,0.715,3.524,1.986,4.795
			C34.044-203.641,35.769-202.927,37.568-202.927z"/>
		<path fill="#FF5892" fill-opacity="0.502" d="M39.038-226.163c1.799,0,3.524-0.715,4.795-1.986
			c1.272-1.272,1.986-2.997,1.986-4.795c0-1.799-0.715-3.524-1.986-4.795c-1.272-1.272-2.997-1.986-4.795-1.986
			s-3.524,0.715-4.795,1.986c-1.272,1.272-1.986,2.997-1.986,4.795c0,1.798,0.715,3.524,1.986,4.795
			C35.514-226.877,37.24-226.163,39.038-226.163z"/>
		<path fill="#FF5892" fill-opacity="0.502" d="M46.192-308.216c1.799,0,3.524-0.715,4.795-1.986
			c1.272-1.272,1.986-2.997,1.986-4.795c0-1.798-0.715-3.524-1.986-4.795c-1.272-1.272-2.997-1.986-4.795-1.986
			c-1.799,0-3.524,0.715-4.795,1.986c-1.272,1.272-1.986,2.997-1.986,4.795c0,1.799,0.715,3.524,1.986,4.795
			C42.668-308.93,44.393-308.216,46.192-308.216z"/>
		<path fill="#FF5892" fill-opacity="0.502" d="M116.58-396.46c1.799,0,3.524-0.715,4.795-1.986
			c1.272-1.272,1.986-2.997,1.986-4.795s-0.715-3.524-1.986-4.795c-1.272-1.272-2.997-1.986-4.795-1.986
			c-1.799,0-3.524,0.715-4.795,1.986c-1.272,1.272-1.986,2.997-1.986,4.795s0.715,3.524,1.986,4.795
			C113.057-397.175,114.782-396.46,116.58-396.46z"/>
		<path fill="#FF5892" fill-opacity="0.502" d="M62.178-373.524c1.799,0,3.524-0.715,4.795-1.986
			c1.272-1.272,1.986-2.997,1.986-4.795c0-1.799-0.715-3.524-1.986-4.795c-1.272-1.272-2.997-1.986-4.795-1.986
			s-3.524,0.715-4.795,1.986c-1.272,1.272-1.986,2.997-1.986,4.795c0,1.798,0.715,3.524,1.986,4.795
			C58.654-374.239,60.379-373.524,62.178-373.524z"/>
		<path fill="#FF5892" fill-opacity="0.502" d="M35.785-213.941c1.799,0,3.524-0.715,4.795-1.986
			c1.272-1.272,1.986-2.997,1.986-4.795c0-1.798-0.715-3.524-1.986-4.795c-1.272-1.272-2.997-1.986-4.795-1.986
			c-1.799,0-3.524,0.715-4.795,1.986c-1.272,1.272-1.986,2.997-1.986,4.795c0,1.799,0.715,3.524,1.986,4.795
			C32.261-214.656,33.986-213.941,35.785-213.941z"/>
		<path fill="#FF5892" fill-opacity="0.502" d="M72.074-273.173c1.799,0,3.524-0.715,4.795-1.986
			c1.272-1.272,1.986-2.997,1.986-4.795c0-1.799-0.715-3.524-1.986-4.795s-2.997-1.986-4.795-1.986
			c-1.799,0-3.524,0.715-4.795,1.986c-1.272,1.272-1.986,2.997-1.986,4.795c0,1.798,0.715,3.524,1.986,4.795
			C68.55-273.888,70.275-273.173,72.074-273.173z"/>
		<path fill="#FF5892" fill-opacity="0.502" d="M36.15-238.708c1.799,0,3.524-0.715,4.795-1.986
			c1.272-1.272,1.986-2.997,1.986-4.795c0-1.798-0.715-3.524-1.986-4.795c-1.272-1.272-2.997-1.986-4.795-1.986
			c-1.799,0-3.524,0.715-4.795,1.986c-1.272,1.272-1.986,2.997-1.986,4.795c0,1.799,0.715,3.524,1.986,4.795
			C32.626-239.422,34.351-238.708,36.15-238.708z"/>
		<path fill="#FF5892" fill-opacity="0.502" d="M47.015-207.457c1.799,0,3.524-0.715,4.795-1.986
			c1.272-1.272,1.986-2.997,1.986-4.795c0-1.798-0.715-3.524-1.986-4.795c-1.272-1.272-2.997-1.986-4.795-1.986
			c-1.799,0-3.524,0.715-4.795,1.986c-1.272,1.272-1.986,2.997-1.986,4.795c0,1.799,0.715,3.524,1.986,4.795
			C43.492-208.172,45.217-207.457,47.015-207.457z"/>
		<path fill="#FF5892" fill-opacity="0.502" d="M37.474-215.252c1.799,0,3.524-0.715,4.795-1.986
			c1.272-1.272,1.986-2.997,1.986-4.795c0-1.798-0.715-3.524-1.986-4.795c-1.272-1.272-2.997-1.986-4.795-1.986
			c-1.799,0-3.524,0.715-4.795,1.986c-1.272,1.272-1.986,2.997-1.986,4.795c0,1.799,0.715,3.524,1.986,4.795
			C33.95-215.967,35.675-215.252,37.474-215.252z"/>
		<path fill="#FF5892" fill-opacity="0.502" d="M43.898-335.959c1.799,0,3.524-0.715,4.795-1.986
			c1.272-1.272,1.986-2.997,1.986-4.795c0-1.799-0.715-3.524-1.986-4.795c-1.272-1.272-2.997-1.986-4.795-1.986
			c-1.799,0-3.524,0.715-4.795,1.986c-1.272,1.272-1.986,2.997-1.986,4.795c0,1.798,0.715,3.524,1.986,4.795
			C40.374-336.673,42.099-335.959,43.898-335.959z"/>
		<path fill="#FF5892" fill-opacity="0.502" d="M45.889-293.51c1.799,0,3.524-0.715,4.795-1.986
			c1.272-1.272,1.986-2.997,1.986-4.795c0-1.799-0.715-3.524-1.986-4.795c-1.272-1.272-2.997-1.986-4.795-1.986
			s-3.524,0.715-4.795,1.986c-1.272,1.272-1.986,2.997-1.986,4.795c0,1.798,0.715,3.524,1.986,4.795
			C42.366-294.224,44.091-293.51,45.889-293.51z"/>
		<path fill="#FF5892" fill-opacity="0.502" d="M188.95-400.837c1.799,0,3.524-0.715,4.795-1.986
			c1.272-1.272,1.986-2.997,1.986-4.795s-0.715-3.524-1.986-4.795c-1.272-1.272-2.997-1.986-4.795-1.986s-3.524,0.715-4.795,1.986
			c-1.272,1.272-1.986,2.997-1.986,4.795s0.715,3.524,1.986,4.795C185.427-401.551,187.152-400.837,188.95-400.837z"/>
		<path fill="#FF5892" fill-opacity="0.502" d="M35.524-142.033c1.799,0,3.524-0.715,4.795-1.986
			c1.272-1.272,1.986-2.997,1.986-4.795c0-1.799-0.715-3.524-1.986-4.795c-1.272-1.272-2.997-1.986-4.795-1.986
			c-1.799,0-3.524,0.715-4.795,1.986c-1.272,1.272-1.986,2.997-1.986,4.795c0,1.798,0.715,3.524,1.986,4.795
			C32-142.748,33.725-142.033,35.524-142.033z"/>
		<path fill="#FF5892" fill-opacity="0.502" d="M39.32-240.323c1.799,0,3.524-0.715,4.795-1.986
			c1.272-1.272,1.986-2.997,1.986-4.795c0-1.798-0.715-3.524-1.986-4.795c-1.272-1.272-2.997-1.986-4.795-1.986
			c-1.799,0-3.524,0.715-4.795,1.986c-1.272,1.272-1.986,2.997-1.986,4.795c0,1.799,0.715,3.524,1.986,4.795
			C35.796-241.037,37.521-240.323,39.32-240.323z"/>
		<path fill="#FF5892" fill-opacity="0.502" d="M107.863-278.703c1.799,0,3.524-0.715,4.795-1.986
			c1.272-1.272,1.986-2.997,1.986-4.795c0-1.799-0.715-3.524-1.986-4.795c-1.272-1.272-2.997-1.986-4.795-1.986
			c-1.799,0-3.524,0.715-4.795,1.986c-1.272,1.272-1.986,2.997-1.986,4.795c0,1.798,0.715,3.524,1.986,4.795
			C104.339-279.418,106.064-278.703,107.863-278.703z"/>
		<path fill="#FF5892" fill-opacity="0.502" d="M49.768-227.601c1.799,0,3.524-0.715,4.795-1.986
			c1.272-1.272,1.986-2.997,1.986-4.795c0-1.798-0.715-3.524-1.986-4.795c-1.272-1.272-2.997-1.986-4.795-1.986
			c-1.799,0-3.524,0.715-4.795,1.986c-1.272,1.272-1.986,2.997-1.986,4.795c0,1.799,0.715,3.524,1.986,4.795
			C46.245-228.316,47.97-227.601,49.768-227.601z"/>
		<path fill="#FF5892" fill-opacity="0.502" d="M49.675-294.756c1.799,0,3.524-0.715,4.795-1.986
			c1.272-1.272,1.986-2.997,1.986-4.795c0-1.798-0.715-3.524-1.986-4.795c-1.272-1.272-2.997-1.986-4.795-1.986
			c-1.799,0-3.524,0.715-4.795,1.986c-1.272,1.272-1.986,2.997-1.986,4.795c0,1.799,0.715,3.524,1.986,4.795
			C46.151-295.47,47.876-294.756,49.675-294.756z"/>
		<path fill="#FF5892" fill-opacity="0.502" d="M72.063-223.302c1.799,0,3.524-0.715,4.795-1.986
			c1.272-1.272,1.986-2.997,1.986-4.795s-0.715-3.524-1.986-4.795c-1.272-1.272-2.997-1.986-4.795-1.986
			c-1.799,0-3.524,0.715-4.795,1.986c-1.272,1.272-1.986,2.997-1.986,4.795s0.715,3.524,1.986,4.795
			C68.54-224.016,70.265-223.302,72.063-223.302z"/>
		<path fill="#FF5892" fill-opacity="0.502" d="M38.746-233.462c1.799,0,3.524-0.715,4.795-1.986
			c1.272-1.272,1.986-2.997,1.986-4.795c0-1.798-0.715-3.524-1.986-4.795c-1.272-1.272-2.997-1.986-4.795-1.986
			c-1.799,0-3.524,0.715-4.795,1.986c-1.272,1.272-1.986,2.997-1.986,4.795c0,1.799,0.715,3.524,1.986,4.795
			C35.223-234.177,36.948-233.462,38.746-233.462z"/>
		<path fill="#FF5892" fill-opacity="0.502" d="M39.413-260.959c1.799,0,3.524-0.715,4.795-1.986
			c1.272-1.272,1.986-2.997,1.986-4.795s-0.715-3.524-1.986-4.795c-1.272-1.272-2.997-1.986-4.795-1.986
			c-1.799,0-3.524,0.715-4.795,1.986c-1.272,1.272-1.986,2.997-1.986,4.795s0.715,3.524,1.986,4.795
			C35.89-261.674,37.615-260.959,39.413-260.959z"/>
		<path fill="#FF5892" fill-opacity="0.502" d="M87.278-411.512c1.799,0,3.524-0.715,4.795-1.986
			c1.272-1.272,1.986-2.997,1.986-4.795c0-1.799-0.715-3.524-1.986-4.795c-1.272-1.272-2.997-1.986-4.795-1.986
			c-1.799,0-3.524,0.715-4.795,1.986c-1.272,1.272-1.986,2.997-1.986,4.795c0,1.798,0.715,3.524,1.986,4.795
			C83.754-412.227,85.479-411.512,87.278-411.512z"/>
		<path fill="#FF5892" fill-opacity="0.502" d="M39.32-218.971c1.799,0,3.524-0.715,4.795-1.986
			c1.272-1.272,1.986-2.997,1.986-4.795c0-1.798-0.715-3.524-1.986-4.795c-1.272-1.272-2.997-1.986-4.795-1.986
			c-1.799,0-3.524,0.715-4.795,1.986c-1.272,1.272-1.986,2.997-1.986,4.795c0,1.799,0.715,3.524,1.986,4.795
			C35.796-219.686,37.521-218.971,39.32-218.971z"/>
		<path fill="#FF5892" fill-opacity="0.502" d="M40.926-170.33c1.799,0,3.524-0.715,4.795-1.986
			c1.272-1.272,1.986-2.997,1.986-4.795c0-1.798-0.715-3.524-1.986-4.795c-1.272-1.272-2.997-1.986-4.795-1.986
			c-1.799,0-3.524,0.715-4.795,1.986c-1.272,1.272-1.986,2.997-1.986,4.795c0,1.799,0.715,3.524,1.986,4.795
			C37.402-171.045,39.127-170.33,40.926-170.33z"/>
		<path fill="#FF5892" fill-opacity="0.502" d="M37.901-187.052c1.799,0,3.524-0.715,4.795-1.986
			c1.272-1.272,1.986-2.997,1.986-4.795c0-1.798-0.715-3.524-1.986-4.795c-1.272-1.272-2.997-1.986-4.795-1.986
			c-1.799,0-3.524,0.715-4.795,1.986c-1.272,1.272-1.986,2.997-1.986,4.795c0,1.799,0.715,3.524,1.986,4.795
			C34.378-187.766,36.103-187.052,37.901-187.052z"/>
		<path fill="#FF5892" fill-opacity="0.502" d="M49.825,180.691c1.866,0,3.656-0.715,4.975-1.986
			c1.319-1.272,2.061-2.997,2.061-4.795s-0.741-3.524-2.061-4.795c-1.319-1.272-3.109-1.986-4.975-1.986
			c-1.866,0-3.656,0.715-4.975,1.986c-1.319,1.272-2.061,2.997-2.061,4.795s0.741,3.524,2.061,4.795
			C46.169,179.977,47.959,180.691,49.825,180.691z"/>
		<path fill="#FF5892" fill-opacity="0.502" d="M35.479,363.203c1.866,0,3.656-0.715,4.975-1.986
			c1.319-1.272,2.061-2.997,2.061-4.795c0-1.799-0.741-3.524-2.061-4.795c-1.319-1.272-3.109-1.986-4.975-1.986
			c-1.866,0-3.656,0.715-4.975,1.986c-1.319,1.272-2.061,2.997-2.061,4.795c0,1.799,0.741,3.524,2.061,4.795
			C31.823,362.488,33.613,363.203,35.479,363.203z"/>
		<path fill="#FF5892" fill-opacity="0.502" d="M29.317,286.08c1.866,0,3.656-0.715,4.975-1.986
			c1.319-1.272,2.061-2.997,2.061-4.795c0-1.799-0.741-3.524-2.061-4.795c-1.319-1.272-3.109-1.986-4.975-1.986
			c-1.866,0-3.656,0.715-4.975,1.986c-1.319,1.272-2.061,2.997-2.061,4.795c0,1.798,0.741,3.524,2.061,4.795
			C25.661,285.366,27.451,286.08,29.317,286.08z"/>
		<path fill="#FF5892" fill-opacity="0.502" d="M76.922,322.184c1.866,0,3.656-0.715,4.975-1.986
			c1.319-1.272,2.061-2.997,2.061-4.795c0-1.799-0.741-3.524-2.061-4.795c-1.319-1.272-3.109-1.986-4.975-1.986
			c-1.866,0-3.656,0.715-4.975,1.986c-1.319,1.272-2.061,2.997-2.061,4.795c0,1.798,0.741,3.524,2.061,4.795
			C73.266,321.469,75.056,322.184,76.922,322.184z"/>
		<path fill="#FF5892" fill-opacity="0.502" d="M27.662,322.015c1.866,0,3.656-0.715,4.975-1.986
			c1.319-1.272,2.061-2.997,2.061-4.795c0-1.799-0.741-3.524-2.061-4.795c-1.319-1.272-3.109-1.986-4.975-1.986
			c-1.866,0-3.656,0.715-4.975,1.986c-1.319,1.272-2.061,2.997-2.061,4.795c0,1.798,0.741,3.524,2.061,4.795
			C24.006,321.3,25.796,322.015,27.662,322.015z"/>
		<path fill="#FF5892" fill-opacity="0.502" d="M24.643,339.997c1.866,0,3.656-0.715,4.975-1.986
			c1.319-1.272,2.061-2.997,2.061-4.795s-0.741-3.524-2.061-4.795c-1.319-1.272-3.109-1.986-4.975-1.986
			c-1.866,0-3.656,0.715-4.975,1.986c-1.319,1.272-2.061,2.997-2.061,4.795s0.741,3.524,2.061,4.795
			C20.987,339.283,22.777,339.997,24.643,339.997z"/>
		<path fill="#FF5892" fill-opacity="0.502" d="M32,311.47c1.866,0,3.656-0.715,4.975-1.986c1.319-1.272,2.061-2.997,2.061-4.795
			c0-1.798-0.741-3.524-2.061-4.795c-1.319-1.272-3.109-1.986-4.975-1.986c-1.866,0-3.656,0.715-4.975,1.986
			c-1.319,1.272-2.061,2.997-2.061,4.795c0,1.799,0.741,3.524,2.061,4.795C28.344,310.755,30.134,311.47,32,311.47z"/>
		<path fill="#FF5892" fill-opacity="0.502" d="M34.64,173.984c1.866,0,3.656-0.715,4.975-1.986
			c1.319-1.272,2.061-2.997,2.061-4.795c0-1.799-0.741-3.524-2.061-4.795c-1.319-1.272-3.109-1.986-4.975-1.986
			c-1.866,0-3.656,0.715-4.975,1.986c-1.319,1.272-2.061,2.997-2.061,4.795c0,1.798,0.741,3.524,2.061,4.795
			C30.984,173.27,32.774,173.984,34.64,173.984z"/>
		<path fill="#FF5892" fill-opacity="0.502" d="M26.369,374.794c1.866,0,3.656-0.715,4.975-1.986
			c1.319-1.272,2.061-2.997,2.061-4.795c0-1.798-0.741-3.524-2.061-4.795c-1.319-1.272-3.109-1.986-4.975-1.986
			c-1.866,0-3.656,0.715-4.975,1.986c-1.319,1.272-2.061,2.997-2.061,4.795c0,1.799,0.741,3.524,2.061,4.795
			C22.713,374.079,24.503,374.794,26.369,374.794z"/>
		<path fill="#FF5892" fill-opacity="0.502" d="M27.748,351.865c1.866,0,3.656-0.715,4.975-1.986
			c1.319-1.272,2.061-2.997,2.061-4.795c0-1.799-0.741-3.524-2.061-4.795c-1.319-1.272-3.109-1.986-4.975-1.986
			s-3.656,0.715-4.975,1.986c-1.319,1.272-2.061,2.997-2.061,4.795c0,1.798,0.741,3.524,2.061,4.795
			C24.092,351.151,25.882,351.865,27.748,351.865z"/>
		<path fill="#FF5892" fill-opacity="0.502" d="M28.143,265.782c1.866,0,3.656-0.715,4.975-1.986
			c1.319-1.272,2.061-2.997,2.061-4.795c0-1.799-0.741-3.524-2.061-4.795c-1.319-1.272-3.109-1.986-4.975-1.986
			c-1.866,0-3.656,0.715-4.975,1.986c-1.319,1.272-2.061,2.997-2.061,4.795c0,1.798,0.741,3.524,2.061,4.795
			C24.487,265.068,26.277,265.782,28.143,265.782z"/>
		<path fill="#FF5892" fill-opacity="0.502" d="M23.826,354.334c1.866,0,3.656-0.715,4.975-1.986
			c1.319-1.272,2.061-2.997,2.061-4.795c0-1.799-0.741-3.524-2.061-4.795c-1.319-1.272-3.109-1.986-4.975-1.986
			c-1.866,0-3.656,0.715-4.975,1.986c-1.319,1.272-2.061,2.997-2.061,4.795c0,1.798,0.741,3.524,2.061,4.795
			C20.17,353.62,21.96,354.334,23.826,354.334z"/>
		<path fill="#FF5892" fill-opacity="0.502" d="M40.764,308.655c1.866,0,3.656-0.715,4.975-1.986
			c1.319-1.272,2.061-2.997,2.061-4.795c0-1.799-0.741-3.524-2.061-4.795c-1.319-1.272-3.109-1.986-4.975-1.986
			c-1.866,0-3.656,0.715-4.975,1.986c-1.319,1.272-2.061,2.997-2.061,4.795c0,1.798,0.741,3.524,2.061,4.795
			C37.108,307.94,38.898,308.655,40.764,308.655z"/>
		<path fill="#FF5892" fill-opacity="0.502" d="M31.692,354.011c1.866,0,3.656-0.715,4.975-1.986
			c1.319-1.272,2.061-2.997,2.061-4.795c0-1.798-0.741-3.524-2.061-4.795c-1.319-1.272-3.109-1.986-4.975-1.986
			c-1.866,0-3.656,0.715-4.975,1.986c-1.319,1.272-2.061,2.997-2.061,4.795c0,1.799,0.741,3.524,2.061,4.795
			C28.036,353.297,29.826,354.011,31.692,354.011z"/>
		<path fill="#FF5892" fill-opacity="0.502" d="M32.492,272.528c1.866,0,3.656-0.715,4.975-1.986
			c1.319-1.272,2.061-2.997,2.061-4.795c0-1.798-0.741-3.524-2.061-4.795c-1.319-1.272-3.109-1.986-4.975-1.986
			c-1.866,0-3.656,0.715-4.975,1.986c-1.319,1.272-2.061,2.997-2.061,4.795c0,1.799,0.741,3.524,2.061,4.795
			C28.837,271.813,30.626,272.528,32.492,272.528z"/>
		<path fill="#FF5892" fill-opacity="0.502" d="M47.288,183.237c1.866,0,3.656-0.715,4.975-1.986s2.061-2.997,2.061-4.795
			c0-1.798-0.741-3.524-2.061-4.795c-1.319-1.272-3.109-1.986-4.975-1.986c-1.866,0-3.656,0.715-4.975,1.986
			c-1.319,1.272-2.061,2.997-2.061,4.795c0,1.799,0.741,3.524,2.061,4.795C43.632,182.523,45.422,183.237,47.288,183.237z"/>
		<path fill="#FF5892" fill-opacity="0.502" d="M50.593,344.059c1.866,0,3.656-0.715,4.975-1.986
			c1.319-1.272,2.061-2.997,2.061-4.795c0-1.799-0.741-3.524-2.061-4.795c-1.319-1.272-3.109-1.986-4.975-1.986
			c-1.866,0-3.656,0.715-4.975,1.986c-1.319,1.272-2.061,2.997-2.061,4.795c0,1.798,0.741,3.524,2.061,4.795
			C46.937,343.344,48.727,344.059,50.593,344.059z"/>
		<path fill="#FF5892" fill-opacity="0.502" d="M26.255,279.389c1.866,0,3.656-0.715,4.975-1.986
			c1.319-1.272,2.061-2.997,2.061-4.795c0-1.799-0.741-3.524-2.061-4.795c-1.319-1.272-3.109-1.986-4.975-1.986
			c-1.866,0-3.656,0.715-4.975,1.986c-1.319,1.272-2.061,2.997-2.061,4.795c0,1.798,0.741,3.524,2.061,4.795
			C22.599,278.674,24.389,279.389,26.255,279.389z"/>
		<path fill="#FF5892" fill-opacity="0.502" d="M25.016,309.278c1.866,0,3.656-0.715,4.975-1.986
			c1.319-1.272,2.061-2.997,2.061-4.795c0-1.799-0.741-3.524-2.061-4.795c-1.319-1.272-3.109-1.986-4.975-1.986
			c-1.866,0-3.656,0.715-4.975,1.986c-1.319,1.272-2.061,2.997-2.061,4.795c0,1.798,0.741,3.524,2.061,4.795
			C21.36,308.563,23.15,309.278,25.016,309.278z"/>
		<path fill="#FF5892" fill-opacity="0.502" d="M91.296,251.599c1.866,0,3.656-0.715,4.975-1.986
			c1.319-1.272,2.061-2.997,2.061-4.795s-0.741-3.524-2.061-4.795c-1.319-1.272-3.109-1.986-4.975-1.986s-3.656,0.715-4.975,1.986
			c-1.319,1.272-2.061,2.997-2.061,4.795s0.741,3.524,2.061,4.795S89.43,251.599,91.296,251.599z"/>
		<path fill="#FF5892" fill-opacity="0.502" d="M25.963,287.203c1.866,0,3.656-0.715,4.975-1.986
			c1.319-1.272,2.061-2.997,2.061-4.795c0-1.799-0.741-3.524-2.061-4.795c-1.319-1.272-3.109-1.986-4.975-1.986
			c-1.866,0-3.656,0.715-4.975,1.986c-1.319,1.272-2.061,2.997-2.061,4.795c0,1.798,0.741,3.524,2.061,4.795
			C22.307,286.489,24.097,287.203,25.963,287.203z"/>
		<path fill="#FF5892" fill-opacity="0.502" d="M28.019,272.735c1.866,0,3.656-0.715,4.975-1.986
			c1.319-1.272,2.061-2.997,2.061-4.795s-0.741-3.524-2.061-4.795c-1.319-1.272-3.109-1.986-4.975-1.986
			c-1.866,0-3.656,0.715-4.975,1.986c-1.319,1.272-2.061,2.997-2.061,4.795s0.741,3.524,2.061,4.795
			C24.363,272.021,26.153,272.735,28.019,272.735z"/>
		<path fill="#FF5892" fill-opacity="0.502" d="M27.148,316.877c1.866,0,3.656-0.715,4.975-1.986
			c1.319-1.272,2.061-2.997,2.061-4.795c0-1.798-0.741-3.524-2.061-4.795c-1.319-1.272-3.109-1.986-4.975-1.986
			c-1.866,0-3.656,0.715-4.975,1.986c-1.319,1.272-2.061,2.997-2.061,4.795c0,1.799,0.741,3.524,2.061,4.795
			C23.492,316.162,25.282,316.877,27.148,316.877z"/>
		<path fill="#FF5892" fill-opacity="0.502" d="M25.665,315.254c1.866,0,3.656-0.715,4.975-1.986
			c1.319-1.272,2.061-2.997,2.061-4.795c0-1.799-0.741-3.524-2.061-4.795c-1.319-1.272-3.109-1.986-4.975-1.986
			c-1.866,0-3.656,0.715-4.975,1.986c-1.319,1.272-2.061,2.997-2.061,4.795c0,1.798,0.741,3.524,2.061,4.795
			C22.01,314.539,23.799,315.254,25.665,315.254z"/>
		<path fill="#FF5892" fill-opacity="0.502" d="M29.376,304.517c1.866,0,3.656-0.715,4.975-1.986
			c1.319-1.272,2.061-2.997,2.061-4.795c0-1.798-0.741-3.524-2.061-4.795c-1.319-1.272-3.109-1.986-4.975-1.986
			c-1.866,0-3.656,0.715-4.975,1.986c-1.319,1.272-2.061,2.997-2.061,4.795c0,1.799,0.741,3.524,2.061,4.795
			C25.721,303.802,27.51,304.517,29.376,304.517z"/>
		<path fill="#FF5892" fill-opacity="0.502" d="M28.662,347.581c1.866,0,3.656-0.715,4.975-1.986
			c1.319-1.272,2.061-2.997,2.061-4.795c0-1.798-0.741-3.524-2.061-4.795c-1.319-1.272-3.109-1.986-4.975-1.986
			c-1.866,0-3.656,0.715-4.975,1.986c-1.319,1.272-2.061,2.997-2.061,4.795c0,1.799,0.741,3.524,2.061,4.795
			C25.006,346.867,26.796,347.581,28.662,347.581z"/>
		<path fill="#FF5892" fill-opacity="0.502" d="M25.054,307.901c1.866,0,3.656-0.715,4.975-1.986
			c1.319-1.272,2.061-2.997,2.061-4.795c0-1.799-0.741-3.524-2.061-4.795c-1.319-1.272-3.109-1.986-4.975-1.986
			c-1.866,0-3.656,0.715-4.975,1.986c-1.319,1.272-2.061,2.997-2.061,4.795c0,1.798,0.741,3.524,2.061,4.795
			C21.398,307.186,23.188,307.901,25.054,307.901z"/>
		<path fill="#FF5892" fill-opacity="0.502" d="M71.686,158.317c1.866,0,3.656-0.715,4.975-1.986
			c1.319-1.272,2.061-2.997,2.061-4.795c0-1.798-0.741-3.524-2.061-4.795s-3.109-1.986-4.975-1.986
			c-1.866,0-3.656,0.715-4.975,1.986s-2.061,2.997-2.061,4.795c0,1.799,0.741,3.524,2.061,4.795
			C68.03,157.602,69.82,158.317,71.686,158.317z"/>
		<path fill="#FF5892" fill-opacity="0.502" d="M27.802,261.283c1.866,0,3.656-0.715,4.975-1.986
			c1.319-1.272,2.061-2.997,2.061-4.795s-0.741-3.524-2.061-4.795c-1.319-1.272-3.109-1.986-4.975-1.986
			c-1.866,0-3.656,0.715-4.975,1.986c-1.319,1.272-2.061,2.997-2.061,4.795s0.741,3.524,2.061,4.795
			C24.146,260.568,25.936,261.283,27.802,261.283z"/>
		<path fill="#FF5892" fill-opacity="0.502" d="M26.104,357.003c1.866,0,3.656-0.715,4.975-1.986
			c1.319-1.272,2.061-2.997,2.061-4.795c0-1.798-0.741-3.524-2.061-4.795c-1.319-1.272-3.109-1.986-4.975-1.986
			c-1.866,0-3.656,0.715-4.975,1.986c-1.319,1.272-2.061,2.997-2.061,4.795c0,1.799,0.741,3.524,2.061,4.795
			C22.448,356.289,24.238,357.003,26.104,357.003z"/>
		<path fill="#FF5892" fill-opacity="0.502" d="M26.866,333.767c1.866,0,3.656-0.715,4.975-1.986
			c1.319-1.272,2.061-2.997,2.061-4.795c0-1.799-0.741-3.524-2.061-4.795c-1.319-1.272-3.109-1.986-4.975-1.986
			c-1.866,0-3.656,0.715-4.975,1.986c-1.319,1.272-2.061,2.997-2.061,4.795c0,1.798,0.741,3.524,2.061,4.795
			C23.21,333.053,25,333.767,26.866,333.767z"/>
		<path fill="#FF5892" fill-opacity="0.502" d="M30.577,251.715c1.866,0,3.656-0.715,4.975-1.986
			c1.319-1.272,2.061-2.997,2.061-4.795c0-1.799-0.741-3.524-2.061-4.795c-1.319-1.272-3.109-1.986-4.975-1.986
			c-1.866,0-3.656,0.715-4.975,1.986c-1.319,1.272-2.061,2.997-2.061,4.795c0,1.799,0.741,3.524,2.061,4.795
			C26.922,251,28.711,251.715,30.577,251.715z"/>
		<path fill="#FF5892" fill-opacity="0.502" d="M67.093,163.47c1.866,0,3.656-0.715,4.975-1.986s2.061-2.997,2.061-4.795
			c0-1.799-0.741-3.524-2.061-4.795s-3.109-1.986-4.975-1.986s-3.656,0.715-4.975,1.986c-1.319,1.272-2.061,2.997-2.061,4.795
			c0,1.798,0.741,3.524,2.061,4.795C63.437,162.756,65.227,163.47,67.093,163.47z"/>
		<path fill="#FF5892" fill-opacity="0.502" d="M38.87,186.406c1.866,0,3.656-0.715,4.975-1.986
			c1.319-1.272,2.061-2.997,2.061-4.795s-0.741-3.524-2.061-4.795c-1.319-1.272-3.109-1.986-4.975-1.986
			c-1.866,0-3.656,0.715-4.975,1.986c-1.319,1.272-2.061,2.997-2.061,4.795s0.741,3.524,2.061,4.795
			C35.215,185.692,37.004,186.406,38.87,186.406z"/>
		<path fill="#FF5892" fill-opacity="0.502" d="M25.179,345.989c1.866,0,3.656-0.715,4.975-1.986
			c1.319-1.272,2.061-2.997,2.061-4.795c0-1.798-0.741-3.524-2.061-4.795c-1.319-1.272-3.109-1.986-4.975-1.986
			c-1.866,0-3.656,0.715-4.975,1.986c-1.319,1.272-2.061,2.997-2.061,4.795c0,1.799,0.741,3.524,2.061,4.795
			C21.523,345.275,23.312,345.989,25.179,345.989z"/>
		<path fill="#FF5892" fill-opacity="0.502" d="M44.004,286.757c1.866,0,3.656-0.715,4.975-1.986
			c1.319-1.272,2.061-2.997,2.061-4.795c0-1.799-0.741-3.524-2.061-4.795c-1.319-1.272-3.109-1.986-4.975-1.986
			c-1.866,0-3.656,0.715-4.975,1.986c-1.319,1.272-2.061,2.997-2.061,4.795c0,1.798,0.741,3.524,2.061,4.795
			C40.348,286.042,42.138,286.757,44.004,286.757z"/>
		<path fill="#FF5892" fill-opacity="0.502" d="M25.368,321.223c1.866,0,3.656-0.715,4.975-1.986
			c1.319-1.272,2.061-2.997,2.061-4.795c0-1.798-0.741-3.524-2.061-4.795c-1.319-1.272-3.109-1.986-4.975-1.986
			c-1.866,0-3.656,0.715-4.975,1.986c-1.319,1.272-2.061,2.997-2.061,4.795c0,1.799,0.741,3.524,2.061,4.795
			C21.712,320.508,23.502,321.223,25.368,321.223z"/>
		<path fill="#FF5892" fill-opacity="0.502" d="M31.005,352.473c1.866,0,3.656-0.715,4.975-1.986
			c1.319-1.272,2.061-2.997,2.061-4.795c0-1.798-0.741-3.524-2.061-4.795c-1.319-1.272-3.109-1.986-4.975-1.986
			c-1.866,0-3.656,0.715-4.975,1.986c-1.319,1.272-2.061,2.997-2.061,4.795c0,1.799,0.741,3.524,2.061,4.795
			C27.349,351.759,29.139,352.473,31.005,352.473z"/>
		<path fill="#FF5892" fill-opacity="0.502" d="M26.055,344.678c1.866,0,3.656-0.715,4.975-1.986
			c1.319-1.272,2.061-2.997,2.061-4.795c0-1.798-0.741-3.524-2.061-4.795c-1.319-1.272-3.109-1.986-4.975-1.986
			c-1.866,0-3.656,0.715-4.975,1.986c-1.319,1.272-2.061,2.997-2.061,4.795c0,1.799,0.741,3.524,2.061,4.795
			C22.399,343.963,24.189,344.678,26.055,344.678z"/>
		<path fill="#FF5892" fill-opacity="0.502" d="M29.387,223.971c1.866,0,3.656-0.715,4.975-1.986
			c1.319-1.272,2.061-2.997,2.061-4.795c0-1.798-0.741-3.524-2.061-4.795s-3.109-1.986-4.975-1.986
			c-1.866,0-3.656,0.715-4.975,1.986c-1.319,1.272-2.061,2.997-2.061,4.795c0,1.799,0.741,3.524,2.061,4.795
			C25.731,223.257,27.521,223.971,29.387,223.971z"/>
		<path fill="#FF5892" fill-opacity="0.502" d="M30.42,266.421c1.866,0,3.656-0.715,4.975-1.986
			c1.319-1.272,2.061-2.997,2.061-4.795c0-1.799-0.741-3.524-2.061-4.795c-1.319-1.272-3.109-1.986-4.975-1.986
			s-3.656,0.715-4.975,1.986c-1.319,1.272-2.061,2.997-2.061,4.795c0,1.798,0.741,3.524,2.061,4.795
			C26.765,265.706,28.554,266.421,30.42,266.421z"/>
		<path fill="#FF5892" fill-opacity="0.502" d="M104.636,159.094c1.866,0,3.656-0.715,4.975-1.986
			c1.319-1.272,2.061-2.997,2.061-4.795c0-1.799-0.741-3.524-2.061-4.795c-1.319-1.272-3.109-1.986-4.975-1.986
			c-1.866,0-3.656,0.715-4.975,1.986c-1.319,1.272-2.061,2.997-2.061,4.795c0,1.799,0.741,3.524,2.061,4.795
			C100.98,158.379,102.77,159.094,104.636,159.094z"/>
		<path fill="#FF5892" fill-opacity="0.502" d="M25.043,417.897c1.866,0,3.656-0.715,4.975-1.986
			c1.319-1.272,2.061-2.997,2.061-4.795c0-1.799-0.741-3.524-2.061-4.795c-1.319-1.272-3.109-1.986-4.975-1.986
			c-1.866,0-3.656,0.715-4.975,1.986c-1.319,1.272-2.061,2.997-2.061,4.795c0,1.798,0.741,3.524,2.061,4.795
			C21.387,417.182,23.177,417.897,25.043,417.897z"/>
		<path fill="#FF5892" fill-opacity="0.502" d="M27.012,319.607c1.866,0,3.656-0.715,4.975-1.986
			c1.319-1.272,2.061-2.997,2.061-4.795c0-1.798-0.741-3.524-2.061-4.795c-1.319-1.272-3.109-1.986-4.975-1.986
			c-1.866,0-3.656,0.715-4.975,1.986c-1.319,1.272-2.061,2.997-2.061,4.795c0,1.799,0.741,3.524,2.061,4.795
			C23.357,318.893,25.146,319.607,27.012,319.607z"/>
		<path fill="#FF5892" fill-opacity="0.502" d="M62.57,281.227c1.866,0,3.656-0.715,4.975-1.986
			c1.319-1.272,2.061-2.997,2.061-4.795c0-1.799-0.741-3.524-2.061-4.795c-1.319-1.272-3.109-1.986-4.975-1.986
			c-1.866,0-3.656,0.715-4.975,1.986c-1.319,1.272-2.061,2.997-2.061,4.795c0,1.798,0.741,3.524,2.061,4.795
			C58.914,280.512,60.704,281.227,62.57,281.227z"/>
		<path fill="#FF5892" fill-opacity="0.502" d="M32.433,332.329c1.866,0,3.656-0.715,4.975-1.986
			c1.319-1.272,2.061-2.997,2.061-4.795c0-1.798-0.741-3.524-2.061-4.795c-1.319-1.272-3.109-1.986-4.975-1.986
			c-1.866,0-3.656,0.715-4.975,1.986c-1.319,1.272-2.061,2.997-2.061,4.795c0,1.799,0.741,3.524,2.061,4.795
			C28.777,331.615,30.567,332.329,32.433,332.329z"/>
		<path fill="#FF5892" fill-opacity="0.502" d="M32.384,265.175c1.866,0,3.656-0.715,4.975-1.986
			c1.319-1.272,2.061-2.997,2.061-4.795c0-1.798-0.741-3.524-2.061-4.795s-3.109-1.986-4.975-1.986
			c-1.866,0-3.656,0.715-4.975,1.986c-1.319,1.272-2.061,2.997-2.061,4.795c0,1.799,0.741,3.524,2.061,4.795
			C28.728,264.46,30.518,265.175,32.384,265.175z"/>
		<path fill="#FF5892" fill-opacity="0.502" d="M43.999,336.629c1.866,0,3.656-0.715,4.975-1.986
			c1.319-1.272,2.061-2.997,2.061-4.795c0-1.799-0.741-3.524-2.061-4.795c-1.319-1.272-3.109-1.986-4.975-1.986
			c-1.866,0-3.656,0.715-4.975,1.986c-1.319,1.272-2.061,2.997-2.061,4.795c0,1.799,0.741,3.524,2.061,4.795
			C40.343,335.914,42.133,336.629,43.999,336.629z"/>
		<path fill="#FF5892" fill-opacity="0.502" d="M26.715,326.468c1.866,0,3.656-0.715,4.975-1.986
			c1.319-1.272,2.061-2.997,2.061-4.795c0-1.798-0.741-3.524-2.061-4.795c-1.319-1.272-3.109-1.986-4.975-1.986
			c-1.866,0-3.656,0.715-4.975,1.986c-1.319,1.272-2.061,2.997-2.061,4.795c0,1.799,0.741,3.524,2.061,4.795
			C23.059,325.754,24.849,326.468,26.715,326.468z"/>
		<path fill="#FF5892" fill-opacity="0.502" d="M27.061,298.971c1.866,0,3.656-0.715,4.975-1.986
			c1.319-1.272,2.061-2.997,2.061-4.795s-0.741-3.524-2.061-4.795c-1.319-1.272-3.109-1.986-4.975-1.986
			c-1.866,0-3.656,0.715-4.975,1.986s-2.061,2.997-2.061,4.795s0.741,3.524,2.061,4.795
			C23.405,298.257,25.195,298.971,27.061,298.971z"/>
		<path fill="#FF5892" fill-opacity="0.502" d="M51.892,148.418c1.866,0,3.656-0.715,4.975-1.986
			c1.319-1.272,2.061-2.997,2.061-4.795c0-1.798-0.741-3.524-2.061-4.795c-1.319-1.272-3.109-1.986-4.975-1.986
			c-1.866,0-3.656,0.715-4.975,1.986c-1.319,1.272-2.061,2.997-2.061,4.795c0,1.799,0.741,3.524,2.061,4.795
			C48.236,147.703,50.026,148.418,51.892,148.418z"/>
		<path fill="#FF5892" fill-opacity="0.502" d="M27.012,340.959c1.866,0,3.656-0.715,4.975-1.986
			c1.319-1.272,2.061-2.997,2.061-4.795c0-1.798-0.741-3.524-2.061-4.795c-1.319-1.272-3.109-1.986-4.975-1.986
			c-1.866,0-3.656,0.715-4.975,1.986c-1.319,1.272-2.061,2.997-2.061,4.795c0,1.799,0.741,3.524,2.061,4.795
			C23.357,340.244,25.146,340.959,27.012,340.959z"/>
		<path fill="#FF5892" fill-opacity="0.502" d="M27.845,389.6c1.866,0,3.656-0.715,4.975-1.986c1.319-1.272,2.061-2.997,2.061-4.795
			c0-1.798-0.741-3.524-2.061-4.795c-1.319-1.272-3.109-1.986-4.975-1.986c-1.866,0-3.656,0.715-4.975,1.986
			c-1.319,1.272-2.061,2.997-2.061,4.795c0,1.799,0.741,3.524,2.061,4.795C24.19,388.885,25.979,389.6,27.845,389.6z"/>
		<path fill="#FF5892" fill-opacity="0.502" d="M26.277,372.879c1.866,0,3.656-0.715,4.975-1.986
			c1.319-1.272,2.061-2.997,2.061-4.795c0-1.798-0.741-3.524-2.061-4.795c-1.319-1.272-3.109-1.986-4.975-1.986
			c-1.866,0-3.656,0.715-4.975,1.986c-1.319,1.272-2.061,2.997-2.061,4.795c0,1.799,0.741,3.524,2.061,4.795
			C22.621,372.164,24.411,372.879,26.277,372.879z"/>
	</g>
	<g id="path-1_00000098909757070749499920000009909697950750742969_">
		<path fill="none" stroke="#000000" stroke-miterlimit="10" d="M173.536,231.096c0-13.111,5.942-24.883,15.372-32.954"/>
		<g>
			<polygon points="188.985,202.851 187.976,198.956 184.471,196.979 193.688,194.565 			"/>
		</g>
	</g>
</g>
<style>
#g-countries-Artboard_4-interactions-img rect, #g-countries-Artboard_4-interactions-img circle, #g-countries-Artboard_4-interactions-img path, #g-countries-Artboard_4-interactions-img line, #g-countries-Artboard_4-interactions-img polyline, #g-countries-Artboard_4-interactions-img polygon { vector-effect: non-scaling-stroke; }
</style>
</svg>

