<?xml version="1.0" encoding="utf-8"?>
<!-- Generator: Adobe Illustrator 26.0.1, SVG Export Plug-In . SVG Version: 6.00 Build 0)  -->
<svg version="1.2" baseProfile="tiny" id="g-countries-Artboard_3-interactions-img" xmlns="http://www.w3.org/2000/svg" xmlns:xlink="http://www.w3.org/1999/xlink"
	 x="0px" y="0px" viewBox="0 0 780 489.986" overflow="visible" xml:space="preserve">
<g>
	<g id="africa_00000070097560880788534960000013505386507636314753_">
		<path fill="#FF5892" fill-opacity="0.502" d="M83.294,157.136c1.799,0,3.524-0.715,4.795-1.986
			c1.272-1.272,1.986-2.997,1.986-4.795s-0.715-3.524-1.986-4.795c-1.272-1.272-2.997-1.986-4.795-1.986
			c-1.799,0-3.524,0.715-4.795,1.986c-1.272,1.272-1.986,2.997-1.986,4.795s0.715,3.524,1.986,4.795
			C79.771,156.421,81.496,157.136,83.294,157.136z"/>
		<path fill="#FF5892" fill-opacity="0.502" d="M55.639,339.647c1.799,0,3.524-0.715,4.795-1.986
			c1.272-1.272,1.986-2.997,1.986-4.795s-0.715-3.524-1.986-4.795c-1.272-1.272-2.997-1.986-4.795-1.986
			c-1.799,0-3.524,0.715-4.795,1.986c-1.272,1.272-1.986,2.997-1.986,4.795s0.715,3.524,1.986,4.795
			C52.116,338.933,53.841,339.647,55.639,339.647z"/>
		<path fill="#FF5892" fill-opacity="0.502" d="M43.762,262.525c1.799,0,3.524-0.715,4.795-1.986
			c1.272-1.272,1.986-2.997,1.986-4.795c0-1.799-0.715-3.524-1.986-4.795c-1.272-1.272-2.997-1.986-4.795-1.986
			c-1.799,0-3.524,0.715-4.795,1.986c-1.272,1.272-1.986,2.997-1.986,4.795c0,1.798,0.715,3.524,1.986,4.795
			C40.238,261.81,41.963,262.525,43.762,262.525z"/>
		<path fill="#FF5892" fill-opacity="0.502" d="M135.528,298.629c1.799,0,3.524-0.715,4.795-1.986
			c1.272-1.272,1.986-2.997,1.986-4.795c0-1.799-0.715-3.524-1.986-4.795c-1.272-1.272-2.997-1.986-4.795-1.986
			c-1.799,0-3.524,0.715-4.795,1.986c-1.272,1.272-1.986,2.997-1.986,4.795c0,1.798,0.715,3.524,1.986,4.795
			C132.004,297.914,133.729,298.629,135.528,298.629z"/>
		<path fill="#FF5892" fill-opacity="0.502" d="M40.571,298.459c1.799,0,3.524-0.715,4.795-1.986
			c1.272-1.272,1.986-2.997,1.986-4.795c0-1.799-0.715-3.524-1.986-4.795c-1.272-1.272-2.997-1.986-4.795-1.986
			c-1.799,0-3.524,0.715-4.795,1.986c-1.272,1.272-1.986,2.997-1.986,4.795c0,1.798,0.715,3.524,1.986,4.795
			C37.047,297.745,38.772,298.459,40.571,298.459z"/>
		<path fill="#FF5892" fill-opacity="0.502" d="M34.752,316.442c1.799,0,3.524-0.715,4.795-1.986
			c1.272-1.272,1.986-2.997,1.986-4.795s-0.715-3.524-1.986-4.795c-1.272-1.272-2.997-1.986-4.795-1.986
			c-1.799,0-3.524,0.715-4.795,1.986c-1.272,1.272-1.986,2.997-1.986,4.795s0.715,3.524,1.986,4.795
			C31.229,315.727,32.954,316.442,34.752,316.442z"/>
		<path fill="#FF5892" fill-opacity="0.502" d="M48.934,287.914c1.799,0,3.524-0.715,4.795-1.986
			c1.272-1.272,1.986-2.997,1.986-4.795c0-1.798-0.715-3.524-1.986-4.795c-1.272-1.272-2.997-1.986-4.795-1.986
			c-1.799,0-3.524,0.715-4.795,1.986c-1.272,1.272-1.986,2.997-1.986,4.795c0,1.799,0.715,3.524,1.986,4.795
			C45.411,287.2,47.136,287.914,48.934,287.914z"/>
		<path fill="#FF5892" fill-opacity="0.502" d="M54.023,150.429c1.799,0,3.524-0.715,4.795-1.986
			c1.272-1.272,1.986-2.997,1.986-4.795c0-1.799-0.715-3.524-1.986-4.795c-1.272-1.272-2.997-1.986-4.795-1.986
			s-3.524,0.715-4.795,1.986c-1.272,1.272-1.986,2.997-1.986,4.795c0,1.798,0.715,3.524,1.986,4.795
			C50.499,149.714,52.225,150.429,54.023,150.429z"/>
		<path fill="#FF5892" fill-opacity="0.502" d="M38.079,351.238c1.799,0,3.524-0.715,4.795-1.986
			c1.272-1.272,1.986-2.997,1.986-4.795c0-1.798-0.715-3.524-1.986-4.795c-1.272-1.272-2.997-1.986-4.795-1.986
			c-1.799,0-3.524,0.715-4.795,1.986c-1.272,1.272-1.986,2.997-1.986,4.795c0,1.799,0.715,3.524,1.986,4.795
			C34.555,350.524,36.28,351.238,38.079,351.238z"/>
		<path fill="#FF5892" fill-opacity="0.502" d="M40.738,328.31c1.799,0,3.524-0.715,4.795-1.986
			c1.272-1.272,1.986-2.997,1.986-4.795c0-1.799-0.715-3.524-1.986-4.795c-1.272-1.272-2.997-1.986-4.795-1.986
			s-3.524,0.715-4.795,1.986c-1.272,1.272-1.986,2.997-1.986,4.795c0,1.798,0.715,3.524,1.986,4.795
			C37.214,327.595,38.939,328.31,40.738,328.31z"/>
		<path fill="#FF5892" fill-opacity="0.502" d="M41.499,242.227c1.799,0,3.524-0.715,4.795-1.986
			c1.272-1.272,1.986-2.997,1.986-4.795c0-1.799-0.715-3.524-1.986-4.795c-1.272-1.272-2.997-1.986-4.795-1.986
			s-3.524,0.715-4.795,1.986c-1.272,1.272-1.986,2.997-1.986,4.795c0,1.799,0.715,3.524,1.986,4.795
			C37.975,241.512,39.701,242.227,41.499,242.227z"/>
		<path fill="#FF5892" fill-opacity="0.502" d="M33.178,330.779c1.799,0,3.524-0.715,4.795-1.986
			c1.272-1.272,1.986-2.997,1.986-4.795c0-1.799-0.715-3.524-1.986-4.795c-1.272-1.272-2.997-1.986-4.795-1.986
			c-1.799,0-3.524,0.715-4.795,1.986c-1.272,1.272-1.986,2.997-1.986,4.795c0,1.798,0.715,3.524,1.986,4.795
			C29.654,330.064,31.379,330.779,33.178,330.779z"/>
		<path fill="#FF5892" fill-opacity="0.502" d="M65.828,285.099c1.799,0,3.524-0.715,4.795-1.986
			c1.272-1.272,1.986-2.997,1.986-4.795c0-1.799-0.715-3.524-1.986-4.795c-1.272-1.272-2.997-1.986-4.795-1.986
			c-1.799,0-3.524,0.715-4.795,1.986c-1.272,1.272-1.986,2.997-1.986,4.795c0,1.798,0.715,3.524,1.986,4.795
			C62.304,284.385,64.029,285.099,65.828,285.099z"/>
		<path fill="#FF5892" fill-opacity="0.502" d="M48.34,330.456c1.799,0,3.524-0.715,4.795-1.986
			c1.272-1.272,1.986-2.997,1.986-4.795c0-1.798-0.715-3.524-1.986-4.795c-1.272-1.272-2.997-1.986-4.795-1.986
			c-1.799,0-3.524,0.715-4.795,1.986c-1.272,1.272-1.986,2.997-1.986,4.795c0,1.799,0.715,3.524,1.986,4.795
			C44.816,329.741,46.541,330.456,48.34,330.456z"/>
		<path fill="#FF5892" fill-opacity="0.502" d="M49.883,248.972c1.799,0,3.524-0.715,4.795-1.986
			c1.272-1.272,1.986-2.997,1.986-4.795c0-1.799-0.715-3.524-1.986-4.795c-1.272-1.272-2.997-1.986-4.795-1.986
			c-1.799,0-3.524,0.715-4.795,1.986c-1.272,1.272-1.986,2.997-1.986,4.795c0,1.798,0.715,3.524,1.986,4.795
			C46.36,248.258,48.085,248.972,49.883,248.972z"/>
		<path fill="#FF5892" fill-opacity="0.502" d="M78.404,159.682c1.799,0,3.524-0.715,4.795-1.986
			c1.272-1.272,1.986-2.997,1.986-4.795c0-1.798-0.715-3.524-1.986-4.795c-1.272-1.272-2.997-1.986-4.795-1.986
			c-1.799,0-3.524,0.715-4.795,1.986c-1.272,1.272-1.986,2.997-1.986,4.795c0,1.799,0.715,3.524,1.986,4.795
			C74.88,158.967,76.605,159.682,78.404,159.682z"/>
		<path fill="#FF5892" fill-opacity="0.502" d="M84.775,320.503c1.799,0,3.524-0.715,4.795-1.986
			c1.272-1.272,1.986-2.997,1.986-4.795c0-1.799-0.715-3.524-1.986-4.795c-1.272-1.272-2.997-1.986-4.795-1.986
			c-1.799,0-3.524,0.715-4.795,1.986c-1.272,1.272-1.986,2.997-1.986,4.795c0,1.798,0.715,3.524,1.986,4.795
			C81.252,319.789,82.977,320.503,84.775,320.503z"/>
		<path fill="#FF5892" fill-opacity="0.502" d="M37.86,255.833c1.799,0,3.524-0.715,4.795-1.986
			c1.272-1.272,1.986-2.997,1.986-4.795c0-1.799-0.715-3.524-1.986-4.795c-1.272-1.272-2.997-1.986-4.795-1.986
			s-3.524,0.715-4.795,1.986c-1.272,1.272-1.986,2.997-1.986,4.795c0,1.799,0.715,3.524,1.986,4.795
			C34.336,255.118,36.061,255.833,37.86,255.833z"/>
		<path fill="#FF5892" fill-opacity="0.502" d="M35.472,285.722c1.799,0,3.524-0.715,4.795-1.986
			c1.272-1.272,1.986-2.997,1.986-4.795c0-1.799-0.715-3.524-1.986-4.795c-1.272-1.272-2.997-1.986-4.795-1.986
			c-1.799,0-3.524,0.715-4.795,1.986c-1.272,1.272-1.986,2.997-1.986,4.795c0,1.798,0.715,3.524,1.986,4.795
			C31.948,285.008,33.673,285.722,35.472,285.722z"/>
		<path fill="#FF5892" fill-opacity="0.502" d="M163.235,228.044c1.799,0,3.524-0.715,4.795-1.986
			c1.272-1.272,1.986-2.997,1.986-4.795s-0.715-3.524-1.986-4.795c-1.272-1.272-2.997-1.986-4.795-1.986
			c-1.798,0-3.524,0.715-4.795,1.986s-1.986,2.997-1.986,4.795s0.715,3.524,1.986,4.795S161.437,228.044,163.235,228.044z"/>
		<path fill="#FF5892" fill-opacity="0.502" d="M37.297,263.648c1.799,0,3.524-0.715,4.795-1.986
			c1.272-1.272,1.986-2.997,1.986-4.795c0-1.799-0.715-3.524-1.986-4.795c-1.272-1.272-2.997-1.986-4.795-1.986
			c-1.799,0-3.524,0.715-4.795,1.986c-1.272,1.272-1.986,2.997-1.986,4.795c0,1.798,0.715,3.524,1.986,4.795
			C33.773,262.933,35.498,263.648,37.297,263.648z"/>
		<path fill="#FF5892" fill-opacity="0.502" d="M41.259,249.18c1.799,0,3.524-0.715,4.795-1.986
			c1.272-1.272,1.986-2.997,1.986-4.795c0-1.799-0.715-3.524-1.986-4.795c-1.272-1.272-2.997-1.986-4.795-1.986
			c-1.799,0-3.524,0.715-4.795,1.986s-1.986,2.997-1.986,4.795c0,1.799,0.715,3.524,1.986,4.795S39.461,249.18,41.259,249.18z"/>
		<path fill="#FF5892" fill-opacity="0.502" d="M39.58,293.321c1.799,0,3.524-0.715,4.795-1.986
			c1.272-1.272,1.986-2.997,1.986-4.795c0-1.798-0.715-3.524-1.986-4.795c-1.272-1.272-2.997-1.986-4.795-1.986
			c-1.799,0-3.524,0.715-4.795,1.986c-1.272,1.272-1.986,2.997-1.986,4.795c0,1.799,0.715,3.524,1.986,4.795
			C36.057,292.607,37.782,293.321,39.58,293.321z"/>
		<path fill="#FF5892" fill-opacity="0.502" d="M36.723,291.698c1.799,0,3.524-0.715,4.795-1.986
			c1.272-1.272,1.986-2.997,1.986-4.795c0-1.799-0.715-3.524-1.986-4.795c-1.272-1.272-2.997-1.986-4.795-1.986
			c-1.799,0-3.524,0.715-4.795,1.986c-1.272,1.272-1.986,2.997-1.986,4.795c0,1.798,0.715,3.524,1.986,4.795
			C33.199,290.984,34.925,291.698,36.723,291.698z"/>
		<path fill="#FF5892" fill-opacity="0.502" d="M43.877,280.961c1.799,0,3.524-0.715,4.795-1.986
			c1.272-1.272,1.986-2.997,1.986-4.795c0-1.798-0.715-3.524-1.986-4.795c-1.272-1.272-2.997-1.986-4.795-1.986
			c-1.799,0-3.524,0.715-4.795,1.986c-1.272,1.272-1.986,2.997-1.986,4.795c0,1.799,0.715,3.524,1.986,4.795
			C40.353,280.247,42.078,280.961,43.877,280.961z"/>
		<path fill="#FF5892" fill-opacity="0.502" d="M42.5,324.026c1.799,0,3.524-0.715,4.795-1.986c1.272-1.272,1.986-2.997,1.986-4.795
			c0-1.798-0.715-3.524-1.986-4.795c-1.272-1.272-2.997-1.986-4.795-1.986c-1.799,0-3.524,0.715-4.795,1.986
			c-1.272,1.272-1.986,2.997-1.986,4.795c0,1.799,0.715,3.524,1.986,4.795C38.977,323.311,40.702,324.026,42.5,324.026z"/>
		<path fill="#FF5892" fill-opacity="0.502" d="M35.545,284.345c1.799,0,3.524-0.715,4.795-1.986
			c1.272-1.272,1.986-2.997,1.986-4.795c0-1.799-0.715-3.524-1.986-4.795c-1.272-1.272-2.997-1.986-4.795-1.986
			c-1.799,0-3.524,0.715-4.795,1.986c-1.272,1.272-1.986,2.997-1.986,4.795c0,1.798,0.715,3.524,1.986,4.795
			C32.021,283.631,33.746,284.345,35.545,284.345z"/>
		<path fill="#FF5892" fill-opacity="0.502" d="M125.434,134.761c1.799,0,3.524-0.715,4.795-1.986
			c1.272-1.272,1.986-2.997,1.986-4.795c0-1.799-0.715-3.524-1.986-4.795c-1.272-1.272-2.997-1.986-4.795-1.986
			c-1.799,0-3.524,0.715-4.795,1.986c-1.272,1.272-1.986,2.997-1.986,4.795c0,1.799,0.715,3.524,1.986,4.795
			C121.91,134.047,123.635,134.761,125.434,134.761z"/>
		<path fill="#FF5892" fill-opacity="0.502" d="M40.842,237.727c1.799,0,3.524-0.715,4.795-1.986
			c1.272-1.272,1.986-2.997,1.986-4.795s-0.715-3.524-1.986-4.795c-1.272-1.272-2.997-1.986-4.795-1.986
			c-1.799,0-3.524,0.715-4.795,1.986c-1.272,1.272-1.986,2.997-1.986,4.795s0.715,3.524,1.986,4.795
			C37.319,237.013,39.044,237.727,40.842,237.727z"/>
		<path fill="#FF5892" fill-opacity="0.502" d="M37.568,333.448c1.799,0,3.524-0.715,4.795-1.986
			c1.272-1.272,1.986-2.997,1.986-4.795c0-1.798-0.715-3.524-1.986-4.795c-1.272-1.272-2.997-1.986-4.795-1.986
			c-1.799,0-3.524,0.715-4.795,1.986c-1.272,1.272-1.986,2.997-1.986,4.795c0,1.799,0.715,3.524,1.986,4.795
			C34.044,332.733,35.769,333.448,37.568,333.448z"/>
		<path fill="#FF5892" fill-opacity="0.502" d="M39.038,310.212c1.799,0,3.524-0.715,4.795-1.986
			c1.272-1.272,1.986-2.997,1.986-4.795c0-1.799-0.715-3.524-1.986-4.795c-1.272-1.272-2.997-1.986-4.795-1.986
			s-3.524,0.715-4.795,1.986c-1.272,1.272-1.986,2.997-1.986,4.795c0,1.798,0.715,3.524,1.986,4.795
			C35.514,309.497,37.24,310.212,39.038,310.212z"/>
		<path fill="#FF5892" fill-opacity="0.502" d="M46.192,228.159c1.799,0,3.524-0.715,4.795-1.986
			c1.272-1.272,1.986-2.997,1.986-4.795c0-1.799-0.715-3.524-1.986-4.795c-1.272-1.272-2.997-1.986-4.795-1.986
			c-1.799,0-3.524,0.715-4.795,1.986c-1.272,1.272-1.986,2.997-1.986,4.795c0,1.799,0.715,3.524,1.986,4.795
			C42.668,227.445,44.393,228.159,46.192,228.159z"/>
		<path fill="#FF5892" fill-opacity="0.502" d="M116.58,139.915c1.799,0,3.524-0.715,4.795-1.986s1.986-2.997,1.986-4.795
			c0-1.799-0.715-3.524-1.986-4.795s-2.997-1.986-4.795-1.986c-1.799,0-3.524,0.715-4.795,1.986
			c-1.272,1.272-1.986,2.997-1.986,4.795c0,1.799,0.715,3.524,1.986,4.795C113.057,139.2,114.782,139.915,116.58,139.915z"/>
		<path fill="#FF5892" fill-opacity="0.502" d="M62.178,162.851c1.799,0,3.524-0.715,4.795-1.986
			c1.272-1.272,1.986-2.997,1.986-4.795s-0.715-3.524-1.986-4.795c-1.272-1.272-2.997-1.986-4.795-1.986s-3.524,0.715-4.795,1.986
			c-1.272,1.272-1.986,2.997-1.986,4.795s0.715,3.524,1.986,4.795C58.654,162.136,60.379,162.851,62.178,162.851z"/>
		<path fill="#FF5892" fill-opacity="0.502" d="M35.785,322.434c1.799,0,3.524-0.715,4.795-1.986
			c1.272-1.272,1.986-2.997,1.986-4.795c0-1.798-0.715-3.524-1.986-4.795c-1.272-1.272-2.997-1.986-4.795-1.986
			c-1.799,0-3.524,0.715-4.795,1.986c-1.272,1.272-1.986,2.997-1.986,4.795c0,1.799,0.715,3.524,1.986,4.795
			C32.261,321.719,33.986,322.434,35.785,322.434z"/>
		<path fill="#FF5892" fill-opacity="0.502" d="M72.074,263.202c1.799,0,3.524-0.715,4.795-1.986
			c1.272-1.272,1.986-2.997,1.986-4.795c0-1.799-0.715-3.524-1.986-4.795s-2.997-1.986-4.795-1.986
			c-1.799,0-3.524,0.715-4.795,1.986c-1.272,1.272-1.986,2.997-1.986,4.795c0,1.798,0.715,3.524,1.986,4.795
			C68.55,262.487,70.275,263.202,72.074,263.202z"/>
		<path fill="#FF5892" fill-opacity="0.502" d="M36.15,297.667c1.799,0,3.524-0.715,4.795-1.986
			c1.272-1.272,1.986-2.997,1.986-4.795c0-1.798-0.715-3.524-1.986-4.795c-1.272-1.272-2.997-1.986-4.795-1.986
			c-1.799,0-3.524,0.715-4.795,1.986c-1.272,1.272-1.986,2.997-1.986,4.795c0,1.799,0.715,3.524,1.986,4.795
			C32.626,296.953,34.351,297.667,36.15,297.667z"/>
		<path fill="#FF5892" fill-opacity="0.502" d="M47.015,328.918c1.799,0,3.524-0.715,4.795-1.986
			c1.272-1.272,1.986-2.997,1.986-4.795c0-1.798-0.715-3.524-1.986-4.795c-1.272-1.272-2.997-1.986-4.795-1.986
			c-1.799,0-3.524,0.715-4.795,1.986c-1.272,1.272-1.986,2.997-1.986,4.795c0,1.799,0.715,3.524,1.986,4.795
			C43.492,328.203,45.217,328.918,47.015,328.918z"/>
		<path fill="#FF5892" fill-opacity="0.502" d="M37.474,321.122c1.799,0,3.524-0.715,4.795-1.986
			c1.272-1.272,1.986-2.997,1.986-4.795c0-1.798-0.715-3.524-1.986-4.795c-1.272-1.272-2.997-1.986-4.795-1.986
			c-1.799,0-3.524,0.715-4.795,1.986c-1.272,1.272-1.986,2.997-1.986,4.795c0,1.799,0.715,3.524,1.986,4.795
			C33.95,320.408,35.675,321.122,37.474,321.122z"/>
		<path fill="#FF5892" fill-opacity="0.502" d="M43.898,200.416c1.799,0,3.524-0.715,4.795-1.986
			c1.272-1.272,1.986-2.997,1.986-4.795c0-1.799-0.715-3.524-1.986-4.795s-2.997-1.986-4.795-1.986
			c-1.799,0-3.524,0.715-4.795,1.986c-1.272,1.272-1.986,2.997-1.986,4.795c0,1.798,0.715,3.524,1.986,4.795
			C40.374,199.701,42.099,200.416,43.898,200.416z"/>
		<path fill="#FF5892" fill-opacity="0.502" d="M45.889,242.865c1.799,0,3.524-0.715,4.795-1.986
			c1.272-1.272,1.986-2.997,1.986-4.795c0-1.799-0.715-3.524-1.986-4.795c-1.272-1.272-2.997-1.986-4.795-1.986
			s-3.524,0.715-4.795,1.986c-1.272,1.272-1.986,2.997-1.986,4.795c0,1.798,0.715,3.524,1.986,4.795
			C42.366,242.151,44.091,242.865,45.889,242.865z"/>
		<path fill="#FF5892" fill-opacity="0.502" d="M188.95,135.538c1.799,0,3.524-0.715,4.795-1.986
			c1.272-1.272,1.986-2.997,1.986-4.795c0-1.799-0.715-3.524-1.986-4.795s-2.997-1.986-4.795-1.986s-3.524,0.715-4.795,1.986
			s-1.986,2.997-1.986,4.795c0,1.799,0.715,3.524,1.986,4.795C185.427,134.824,187.152,135.538,188.95,135.538z"/>
		<path fill="#FF5892" fill-opacity="0.502" d="M35.524,394.341c1.799,0,3.524-0.715,4.795-1.986
			c1.272-1.272,1.986-2.997,1.986-4.795c0-1.799-0.715-3.524-1.986-4.795c-1.272-1.272-2.997-1.986-4.795-1.986
			c-1.799,0-3.524,0.715-4.795,1.986c-1.272,1.272-1.986,2.997-1.986,4.795c0,1.798,0.715,3.524,1.986,4.795
			C32,393.627,33.725,394.341,35.524,394.341z"/>
		<path fill="#FF5892" fill-opacity="0.502" d="M39.32,296.052c1.799,0,3.524-0.715,4.795-1.986
			c1.272-1.272,1.986-2.997,1.986-4.795c0-1.798-0.715-3.524-1.986-4.795c-1.272-1.272-2.997-1.986-4.795-1.986
			c-1.799,0-3.524,0.715-4.795,1.986c-1.272,1.272-1.986,2.997-1.986,4.795c0,1.799,0.715,3.524,1.986,4.795
			C35.796,295.337,37.521,296.052,39.32,296.052z"/>
		<path fill="#FF5892" fill-opacity="0.502" d="M107.863,257.671c1.799,0,3.524-0.715,4.795-1.986
			c1.272-1.272,1.986-2.997,1.986-4.795c0-1.799-0.715-3.524-1.986-4.795c-1.272-1.272-2.997-1.986-4.795-1.986
			c-1.799,0-3.524,0.715-4.795,1.986c-1.272,1.272-1.986,2.997-1.986,4.795c0,1.798,0.715,3.524,1.986,4.795
			C104.339,256.957,106.064,257.671,107.863,257.671z"/>
		<path fill="#FF5892" fill-opacity="0.502" d="M49.768,308.774c1.799,0,3.524-0.715,4.795-1.986
			c1.272-1.272,1.986-2.997,1.986-4.795c0-1.798-0.715-3.524-1.986-4.795c-1.272-1.272-2.997-1.986-4.795-1.986
			c-1.799,0-3.524,0.715-4.795,1.986c-1.272,1.272-1.986,2.997-1.986,4.795c0,1.799,0.715,3.524,1.986,4.795
			C46.245,308.059,47.97,308.774,49.768,308.774z"/>
		<path fill="#FF5892" fill-opacity="0.502" d="M49.675,241.619c1.799,0,3.524-0.715,4.795-1.986
			c1.272-1.272,1.986-2.997,1.986-4.795c0-1.798-0.715-3.524-1.986-4.795c-1.272-1.272-2.997-1.986-4.795-1.986
			c-1.799,0-3.524,0.715-4.795,1.986c-1.272,1.272-1.986,2.997-1.986,4.795c0,1.799,0.715,3.524,1.986,4.795
			C46.151,240.905,47.876,241.619,49.675,241.619z"/>
		<path fill="#FF5892" fill-opacity="0.502" d="M72.063,313.073c1.799,0,3.524-0.715,4.795-1.986
			c1.272-1.272,1.986-2.997,1.986-4.795c0-1.799-0.715-3.524-1.986-4.795c-1.272-1.272-2.997-1.986-4.795-1.986
			c-1.799,0-3.524,0.715-4.795,1.986c-1.272,1.272-1.986,2.997-1.986,4.795c0,1.799,0.715,3.524,1.986,4.795
			C68.54,312.359,70.265,313.073,72.063,313.073z"/>
		<path fill="#FF5892" fill-opacity="0.502" d="M38.746,302.913c1.799,0,3.524-0.715,4.795-1.986
			c1.272-1.272,1.986-2.997,1.986-4.795c0-1.798-0.715-3.524-1.986-4.795c-1.272-1.272-2.997-1.986-4.795-1.986
			c-1.799,0-3.524,0.715-4.795,1.986c-1.272,1.272-1.986,2.997-1.986,4.795c0,1.799,0.715,3.524,1.986,4.795
			C35.223,302.198,36.948,302.913,38.746,302.913z"/>
		<path fill="#FF5892" fill-opacity="0.502" d="M39.413,275.416c1.799,0,3.524-0.715,4.795-1.986
			c1.272-1.272,1.986-2.997,1.986-4.795s-0.715-3.524-1.986-4.795c-1.272-1.272-2.997-1.986-4.795-1.986
			c-1.799,0-3.524,0.715-4.795,1.986c-1.272,1.272-1.986,2.997-1.986,4.795s0.715,3.524,1.986,4.795
			C35.89,274.701,37.615,275.416,39.413,275.416z"/>
		<path fill="#FF5892" fill-opacity="0.502" d="M87.278,124.862c1.799,0,3.524-0.715,4.795-1.986
			c1.272-1.272,1.986-2.997,1.986-4.795c0-1.799-0.715-3.524-1.986-4.795c-1.272-1.272-2.997-1.986-4.795-1.986
			c-1.799,0-3.524,0.715-4.795,1.986c-1.272,1.272-1.986,2.997-1.986,4.795c0,1.799,0.715,3.524,1.986,4.795
			C83.754,124.148,85.479,124.862,87.278,124.862z"/>
		<path fill="#FF5892" fill-opacity="0.502" d="M39.32,317.403c1.799,0,3.524-0.715,4.795-1.986
			c1.272-1.272,1.986-2.997,1.986-4.795c0-1.798-0.715-3.524-1.986-4.795c-1.272-1.272-2.997-1.986-4.795-1.986
			c-1.799,0-3.524,0.715-4.795,1.986c-1.272,1.272-1.986,2.997-1.986,4.795c0,1.799,0.715,3.524,1.986,4.795
			C35.796,316.689,37.521,317.403,39.32,317.403z"/>
		<path fill="#FF5892" fill-opacity="0.502" d="M40.926,366.044c1.799,0,3.524-0.715,4.795-1.986
			c1.272-1.272,1.986-2.997,1.986-4.795c0-1.798-0.715-3.524-1.986-4.795c-1.272-1.272-2.997-1.986-4.795-1.986
			c-1.799,0-3.524,0.715-4.795,1.986c-1.272,1.272-1.986,2.997-1.986,4.795c0,1.799,0.715,3.524,1.986,4.795
			C37.402,365.33,39.127,366.044,40.926,366.044z"/>
		<path fill="#FF5892" fill-opacity="0.502" d="M37.901,349.323c1.799,0,3.524-0.715,4.795-1.986
			c1.272-1.272,1.986-2.997,1.986-4.795c0-1.798-0.715-3.524-1.986-4.795c-1.272-1.272-2.997-1.986-4.795-1.986
			c-1.799,0-3.524,0.715-4.795,1.986c-1.272,1.272-1.986,2.997-1.986,4.795c0,1.799,0.715,3.524,1.986,4.795
			C34.378,348.609,36.103,349.323,37.901,349.323z"/>
		<path fill="#FF5892" fill-opacity="0.502" d="M49.825,717.066c1.866,0,3.656-0.715,4.975-1.986
			c1.319-1.272,2.061-2.997,2.061-4.795s-0.741-3.524-2.061-4.795c-1.319-1.272-3.109-1.986-4.975-1.986
			c-1.866,0-3.656,0.715-4.975,1.986c-1.319,1.272-2.061,2.997-2.061,4.795s0.741,3.524,2.061,4.795
			C46.169,716.352,47.959,717.066,49.825,717.066z"/>
		<path fill="#FF5892" fill-opacity="0.502" d="M35.479,899.578c1.866,0,3.656-0.715,4.975-1.986
			c1.319-1.272,2.061-2.997,2.061-4.795s-0.741-3.524-2.061-4.795c-1.319-1.272-3.109-1.986-4.975-1.986
			c-1.866,0-3.656,0.715-4.975,1.986c-1.319,1.272-2.061,2.997-2.061,4.795s0.741,3.524,2.061,4.795
			C31.823,898.863,33.613,899.578,35.479,899.578z"/>
		<path fill="#FF5892" fill-opacity="0.502" d="M29.317,822.455c1.866,0,3.656-0.715,4.975-1.986
			c1.319-1.272,2.061-2.997,2.061-4.795s-0.741-3.524-2.061-4.795c-1.319-1.272-3.109-1.986-4.975-1.986
			c-1.866,0-3.656,0.715-4.975,1.986c-1.319,1.272-2.061,2.997-2.061,4.795s0.741,3.524,2.061,4.795
			C25.661,821.74,27.451,822.455,29.317,822.455z"/>
		<path fill="#FF5892" fill-opacity="0.502" d="M76.922,858.559c1.866,0,3.656-0.715,4.975-1.986s2.061-2.997,2.061-4.795
			s-0.741-3.524-2.061-4.795s-3.109-1.986-4.975-1.986c-1.866,0-3.656,0.715-4.975,1.986s-2.061,2.997-2.061,4.795
			s0.741,3.524,2.061,4.795S75.056,858.559,76.922,858.559z"/>
		<path fill="#FF5892" fill-opacity="0.502" d="M27.662,858.39c1.866,0,3.656-0.715,4.975-1.986
			c1.319-1.272,2.061-2.997,2.061-4.795c0-1.799-0.741-3.524-2.061-4.795c-1.319-1.272-3.109-1.986-4.975-1.986
			c-1.866,0-3.656,0.715-4.975,1.986c-1.319,1.272-2.061,2.997-2.061,4.795c0,1.798,0.741,3.524,2.061,4.795
			C24.006,857.675,25.796,858.39,27.662,858.39z"/>
		<path fill="#FF5892" fill-opacity="0.502" d="M24.643,876.372c1.866,0,3.656-0.715,4.975-1.986
			c1.319-1.272,2.061-2.997,2.061-4.795c0-1.799-0.741-3.524-2.061-4.795c-1.319-1.272-3.109-1.986-4.975-1.986
			c-1.866,0-3.656,0.715-4.975,1.986s-2.061,2.997-2.061,4.795c0,1.799,0.741,3.524,2.061,4.795S22.777,876.372,24.643,876.372z"/>
		<path fill="#FF5892" fill-opacity="0.502" d="M32,847.845c1.866,0,3.656-0.715,4.975-1.986c1.319-1.272,2.061-2.997,2.061-4.795
			c0-1.798-0.741-3.524-2.061-4.795c-1.319-1.272-3.109-1.986-4.975-1.986c-1.866,0-3.656,0.715-4.975,1.986
			c-1.319,1.272-2.061,2.997-2.061,4.795c0,1.799,0.741,3.524,2.061,4.795C28.344,847.13,30.134,847.845,32,847.845z"/>
		<path fill="#FF5892" fill-opacity="0.502" d="M34.64,710.359c1.866,0,3.656-0.715,4.975-1.986
			c1.319-1.272,2.061-2.997,2.061-4.795c0-1.799-0.741-3.524-2.061-4.795c-1.319-1.272-3.109-1.986-4.975-1.986
			c-1.866,0-3.656,0.715-4.975,1.986c-1.319,1.272-2.061,2.997-2.061,4.795c0,1.798,0.741,3.524,2.061,4.795
			C30.984,709.645,32.774,710.359,34.64,710.359z"/>
		<path fill="#FF5892" fill-opacity="0.502" d="M26.369,911.169c1.866,0,3.656-0.715,4.975-1.986
			c1.319-1.272,2.061-2.997,2.061-4.795s-0.741-3.524-2.061-4.795c-1.319-1.272-3.109-1.986-4.975-1.986
			c-1.866,0-3.656,0.715-4.975,1.986c-1.319,1.272-2.061,2.997-2.061,4.795s0.741,3.524,2.061,4.795
			C22.713,910.454,24.503,911.169,26.369,911.169z"/>
		<path fill="#FF5892" fill-opacity="0.502" d="M27.748,888.24c1.866,0,3.656-0.715,4.975-1.986
			c1.319-1.272,2.061-2.997,2.061-4.795s-0.741-3.524-2.061-4.795c-1.319-1.272-3.109-1.986-4.975-1.986s-3.656,0.715-4.975,1.986
			c-1.319,1.272-2.061,2.997-2.061,4.795s0.741,3.524,2.061,4.795C24.092,887.526,25.882,888.24,27.748,888.24z"/>
		<path fill="#FF5892" fill-opacity="0.502" d="M28.143,802.157c1.866,0,3.656-0.715,4.975-1.986
			c1.319-1.272,2.061-2.997,2.061-4.795c0-1.799-0.741-3.524-2.061-4.795c-1.319-1.272-3.109-1.986-4.975-1.986
			c-1.866,0-3.656,0.715-4.975,1.986c-1.319,1.272-2.061,2.997-2.061,4.795c0,1.798,0.741,3.524,2.061,4.795
			C24.487,801.443,26.277,802.157,28.143,802.157z"/>
		<path fill="#FF5892" fill-opacity="0.502" d="M23.826,890.709c1.866,0,3.656-0.715,4.975-1.986
			c1.319-1.272,2.061-2.997,2.061-4.795c0-1.799-0.741-3.524-2.061-4.795c-1.319-1.272-3.109-1.986-4.975-1.986
			c-1.866,0-3.656,0.715-4.975,1.986c-1.319,1.272-2.061,2.997-2.061,4.795c0,1.798,0.741,3.524,2.061,4.795
			C20.17,889.995,21.96,890.709,23.826,890.709z"/>
		<path fill="#FF5892" fill-opacity="0.502" d="M40.764,845.029c1.866,0,3.656-0.715,4.975-1.986
			c1.319-1.272,2.061-2.997,2.061-4.795c0-1.799-0.741-3.524-2.061-4.795c-1.319-1.272-3.109-1.986-4.975-1.986
			c-1.866,0-3.656,0.715-4.975,1.986c-1.319,1.272-2.061,2.997-2.061,4.795c0,1.798,0.741,3.524,2.061,4.795
			C37.108,844.315,38.898,845.029,40.764,845.029z"/>
		<path fill="#FF5892" fill-opacity="0.502" d="M31.692,890.386c1.866,0,3.656-0.715,4.975-1.986
			c1.319-1.272,2.061-2.997,2.061-4.795s-0.741-3.524-2.061-4.795c-1.319-1.272-3.109-1.986-4.975-1.986
			c-1.866,0-3.656,0.715-4.975,1.986c-1.319,1.272-2.061,2.997-2.061,4.795s0.741,3.524,2.061,4.795
			C28.036,889.672,29.826,890.386,31.692,890.386z"/>
		<path fill="#FF5892" fill-opacity="0.502" d="M32.492,808.903c1.866,0,3.656-0.715,4.975-1.986
			c1.319-1.272,2.061-2.997,2.061-4.795c0-1.799-0.741-3.524-2.061-4.795s-3.109-1.986-4.975-1.986
			c-1.866,0-3.656,0.715-4.975,1.986c-1.319,1.272-2.061,2.997-2.061,4.795c0,1.798,0.741,3.524,2.061,4.795
			C28.837,808.188,30.626,808.903,32.492,808.903z"/>
		<path fill="#FF5892" fill-opacity="0.502" d="M47.288,719.612c1.866,0,3.656-0.715,4.975-1.986
			c1.319-1.272,2.061-2.997,2.061-4.795c0-1.799-0.741-3.524-2.061-4.795s-3.109-1.986-4.975-1.986
			c-1.866,0-3.656,0.715-4.975,1.986c-1.319,1.272-2.061,2.997-2.061,4.795c0,1.798,0.741,3.524,2.061,4.795
			C43.632,718.897,45.422,719.612,47.288,719.612z"/>
		<path fill="#FF5892" fill-opacity="0.502" d="M50.593,880.433c1.866,0,3.656-0.715,4.975-1.986
			c1.319-1.272,2.061-2.997,2.061-4.795c0-1.799-0.741-3.524-2.061-4.795c-1.319-1.272-3.109-1.986-4.975-1.986
			c-1.866,0-3.656,0.715-4.975,1.986c-1.319,1.272-2.061,2.997-2.061,4.795c0,1.798,0.741,3.524,2.061,4.795
			S48.727,880.433,50.593,880.433z"/>
		<path fill="#FF5892" fill-opacity="0.502" d="M26.255,815.763c1.866,0,3.656-0.715,4.975-1.986
			c1.319-1.272,2.061-2.997,2.061-4.795s-0.741-3.524-2.061-4.795c-1.319-1.272-3.109-1.986-4.975-1.986
			c-1.866,0-3.656,0.715-4.975,1.986c-1.319,1.272-2.061,2.997-2.061,4.795s0.741,3.524,2.061,4.795
			C22.599,815.049,24.389,815.763,26.255,815.763z"/>
		<path fill="#FF5892" fill-opacity="0.502" d="M25.016,845.652c1.866,0,3.656-0.715,4.975-1.986
			c1.319-1.272,2.061-2.997,2.061-4.795c0-1.799-0.741-3.524-2.061-4.795c-1.319-1.272-3.109-1.986-4.975-1.986
			c-1.866,0-3.656,0.715-4.975,1.986c-1.319,1.272-2.061,2.997-2.061,4.795c0,1.798,0.741,3.524,2.061,4.795
			C21.36,844.938,23.15,845.652,25.016,845.652z"/>
		<path fill="#FF5892" fill-opacity="0.502" d="M91.296,787.974c1.866,0,3.656-0.715,4.975-1.986
			c1.319-1.272,2.061-2.997,2.061-4.795c0-1.798-0.741-3.524-2.061-4.795c-1.319-1.272-3.109-1.986-4.975-1.986
			s-3.656,0.715-4.975,1.986c-1.319,1.272-2.061,2.997-2.061,4.795c0,1.799,0.741,3.524,2.061,4.795S89.43,787.974,91.296,787.974z"
			/>
		<path fill="#FF5892" fill-opacity="0.502" d="M25.963,823.578c1.866,0,3.656-0.715,4.975-1.986
			c1.319-1.272,2.061-2.997,2.061-4.795s-0.741-3.524-2.061-4.795c-1.319-1.272-3.109-1.986-4.975-1.986
			c-1.866,0-3.656,0.715-4.975,1.986c-1.319,1.272-2.061,2.997-2.061,4.795s0.741,3.524,2.061,4.795
			C22.307,822.863,24.097,823.578,25.963,823.578z"/>
		<path fill="#FF5892" fill-opacity="0.502" d="M28.019,809.11c1.866,0,3.656-0.715,4.975-1.986
			c1.319-1.272,2.061-2.997,2.061-4.795s-0.741-3.524-2.061-4.795c-1.319-1.272-3.109-1.986-4.975-1.986
			c-1.866,0-3.656,0.715-4.975,1.986c-1.319,1.272-2.061,2.997-2.061,4.795s0.741,3.524,2.061,4.795S26.153,809.11,28.019,809.11z"
			/>
		<path fill="#FF5892" fill-opacity="0.502" d="M27.148,853.252c1.866,0,3.656-0.715,4.975-1.986
			c1.319-1.272,2.061-2.997,2.061-4.795s-0.741-3.524-2.061-4.795c-1.319-1.272-3.109-1.986-4.975-1.986
			c-1.866,0-3.656,0.715-4.975,1.986c-1.319,1.272-2.061,2.997-2.061,4.795s0.741,3.524,2.061,4.795
			C23.492,852.537,25.282,853.252,27.148,853.252z"/>
		<path fill="#FF5892" fill-opacity="0.502" d="M25.665,851.629c1.866,0,3.656-0.715,4.975-1.986
			c1.319-1.272,2.061-2.997,2.061-4.795c0-1.799-0.741-3.524-2.061-4.795c-1.319-1.272-3.109-1.986-4.975-1.986
			c-1.866,0-3.656,0.715-4.975,1.986c-1.319,1.272-2.061,2.997-2.061,4.795c0,1.798,0.741,3.524,2.061,4.795
			C22.01,850.914,23.799,851.629,25.665,851.629z"/>
		<path fill="#FF5892" fill-opacity="0.502" d="M29.376,840.891c1.866,0,3.656-0.715,4.975-1.986s2.061-2.997,2.061-4.795
			s-0.741-3.524-2.061-4.795s-3.109-1.986-4.975-1.986c-1.866,0-3.656,0.715-4.975,1.986c-1.319,1.272-2.061,2.997-2.061,4.795
			s0.741,3.524,2.061,4.795C25.721,840.177,27.51,840.891,29.376,840.891z"/>
		<path fill="#FF5892" fill-opacity="0.502" d="M28.662,883.956c1.866,0,3.656-0.715,4.975-1.986
			c1.319-1.272,2.061-2.997,2.061-4.795c0-1.798-0.741-3.524-2.061-4.795c-1.319-1.272-3.109-1.986-4.975-1.986
			c-1.866,0-3.656,0.715-4.975,1.986c-1.319,1.272-2.061,2.997-2.061,4.795c0,1.799,0.741,3.524,2.061,4.795
			C25.006,883.242,26.796,883.956,28.662,883.956z"/>
		<path fill="#FF5892" fill-opacity="0.502" d="M25.054,844.276c1.866,0,3.656-0.715,4.975-1.986
			c1.319-1.272,2.061-2.997,2.061-4.795c0-1.799-0.741-3.524-2.061-4.795c-1.319-1.272-3.109-1.986-4.975-1.986
			c-1.866,0-3.656,0.715-4.975,1.986c-1.319,1.272-2.061,2.997-2.061,4.795c0,1.798,0.741,3.524,2.061,4.795
			C21.398,843.561,23.188,844.276,25.054,844.276z"/>
		<path fill="#FF5892" fill-opacity="0.502" d="M71.686,694.692c1.866,0,3.656-0.715,4.975-1.986s2.061-2.997,2.061-4.795
			c0-1.798-0.741-3.524-2.061-4.795c-1.319-1.272-3.109-1.986-4.975-1.986c-1.866,0-3.656,0.715-4.975,1.986
			c-1.319,1.272-2.061,2.997-2.061,4.795c0,1.799,0.741,3.524,2.061,4.795S69.82,694.692,71.686,694.692z"/>
		<path fill="#FF5892" fill-opacity="0.502" d="M27.802,797.658c1.866,0,3.656-0.715,4.975-1.986
			c1.319-1.272,2.061-2.997,2.061-4.795c0-1.798-0.741-3.524-2.061-4.795c-1.319-1.272-3.109-1.986-4.975-1.986
			c-1.866,0-3.656,0.715-4.975,1.986c-1.319,1.272-2.061,2.997-2.061,4.795c0,1.799,0.741,3.524,2.061,4.795
			C24.146,796.943,25.936,797.658,27.802,797.658z"/>
		<path fill="#FF5892" fill-opacity="0.502" d="M26.104,893.378c1.866,0,3.656-0.715,4.975-1.986s2.061-2.997,2.061-4.795
			c0-1.798-0.741-3.524-2.061-4.795s-3.109-1.986-4.975-1.986c-1.866,0-3.656,0.715-4.975,1.986
			c-1.319,1.272-2.061,2.997-2.061,4.795c0,1.799,0.741,3.524,2.061,4.795C22.448,892.664,24.238,893.378,26.104,893.378z"/>
		<path fill="#FF5892" fill-opacity="0.502" d="M26.866,870.142c1.866,0,3.656-0.715,4.975-1.986
			c1.319-1.272,2.061-2.997,2.061-4.795c0-1.799-0.741-3.524-2.061-4.795c-1.319-1.272-3.109-1.986-4.975-1.986
			c-1.866,0-3.656,0.715-4.975,1.986c-1.319,1.272-2.061,2.997-2.061,4.795c0,1.798,0.741,3.524,2.061,4.795
			C23.21,869.428,25,870.142,26.866,870.142z"/>
		<path fill="#FF5892" fill-opacity="0.502" d="M30.577,788.089c1.866,0,3.656-0.715,4.975-1.986
			c1.319-1.272,2.061-2.997,2.061-4.795c0-1.798-0.741-3.524-2.061-4.795c-1.319-1.272-3.109-1.986-4.975-1.986
			c-1.866,0-3.656,0.715-4.975,1.986c-1.319,1.272-2.061,2.997-2.061,4.795c0,1.799,0.741,3.524,2.061,4.795
			C26.922,787.375,28.711,788.089,30.577,788.089z"/>
		<path fill="#FF5892" fill-opacity="0.502" d="M67.093,699.845c1.866,0,3.656-0.715,4.975-1.986
			c1.319-1.272,2.061-2.997,2.061-4.795s-0.741-3.524-2.061-4.795c-1.319-1.272-3.109-1.986-4.975-1.986s-3.656,0.715-4.975,1.986
			c-1.319,1.272-2.061,2.997-2.061,4.795s0.741,3.524,2.061,4.795C63.437,699.13,65.227,699.845,67.093,699.845z"/>
		<path fill="#FF5892" fill-opacity="0.502" d="M38.87,722.781c1.866,0,3.656-0.715,4.975-1.986
			c1.319-1.272,2.061-2.997,2.061-4.795c0-1.799-0.741-3.524-2.061-4.795c-1.319-1.272-3.109-1.986-4.975-1.986
			c-1.866,0-3.656,0.715-4.975,1.986c-1.319,1.272-2.061,2.997-2.061,4.795c0,1.798,0.741,3.524,2.061,4.795
			C35.215,722.066,37.004,722.781,38.87,722.781z"/>
		<path fill="#FF5892" fill-opacity="0.502" d="M25.179,882.364c1.866,0,3.656-0.715,4.975-1.986
			c1.319-1.272,2.061-2.997,2.061-4.795c0-1.798-0.741-3.524-2.061-4.795c-1.319-1.272-3.109-1.986-4.975-1.986
			c-1.866,0-3.656,0.715-4.975,1.986c-1.319,1.272-2.061,2.997-2.061,4.795c0,1.799,0.741,3.524,2.061,4.795
			C21.523,881.649,23.312,882.364,25.179,882.364z"/>
		<path fill="#FF5892" fill-opacity="0.502" d="M44.004,823.132c1.866,0,3.656-0.715,4.975-1.986
			c1.319-1.272,2.061-2.997,2.061-4.795s-0.741-3.524-2.061-4.795c-1.319-1.272-3.109-1.986-4.975-1.986
			c-1.866,0-3.656,0.715-4.975,1.986c-1.319,1.272-2.061,2.997-2.061,4.795s0.741,3.524,2.061,4.795
			C40.348,822.417,42.138,823.132,44.004,823.132z"/>
		<path fill="#FF5892" fill-opacity="0.502" d="M25.368,857.597c1.866,0,3.656-0.715,4.975-1.986
			c1.319-1.272,2.061-2.997,2.061-4.795s-0.741-3.524-2.061-4.795c-1.319-1.272-3.109-1.986-4.975-1.986
			c-1.866,0-3.656,0.715-4.975,1.986s-2.061,2.997-2.061,4.795s0.741,3.524,2.061,4.795
			C21.712,856.883,23.502,857.597,25.368,857.597z"/>
		<path fill="#FF5892" fill-opacity="0.502" d="M31.005,888.848c1.866,0,3.656-0.715,4.975-1.986
			c1.319-1.272,2.061-2.997,2.061-4.795c0-1.798-0.741-3.524-2.061-4.795c-1.319-1.272-3.109-1.986-4.975-1.986
			c-1.866,0-3.656,0.715-4.975,1.986s-2.061,2.997-2.061,4.795c0,1.799,0.741,3.524,2.061,4.795
			C27.349,888.133,29.139,888.848,31.005,888.848z"/>
		<path fill="#FF5892" fill-opacity="0.502" d="M26.055,881.053c1.866,0,3.656-0.715,4.975-1.986
			c1.319-1.272,2.061-2.997,2.061-4.795s-0.741-3.524-2.061-4.795c-1.319-1.272-3.109-1.986-4.975-1.986
			c-1.866,0-3.656,0.715-4.975,1.986c-1.319,1.272-2.061,2.997-2.061,4.795s0.741,3.524,2.061,4.795
			C22.399,880.338,24.189,881.053,26.055,881.053z"/>
		<path fill="#FF5892" fill-opacity="0.502" d="M29.387,760.346c1.866,0,3.656-0.715,4.975-1.986s2.061-2.997,2.061-4.795
			s-0.741-3.524-2.061-4.795s-3.109-1.986-4.975-1.986c-1.866,0-3.656,0.715-4.975,1.986c-1.319,1.272-2.061,2.997-2.061,4.795
			s0.741,3.524,2.061,4.795C25.731,759.632,27.521,760.346,29.387,760.346z"/>
		<path fill="#FF5892" fill-opacity="0.502" d="M30.42,802.795c1.866,0,3.656-0.715,4.975-1.986
			c1.319-1.272,2.061-2.997,2.061-4.795s-0.741-3.524-2.061-4.795c-1.319-1.272-3.109-1.986-4.975-1.986s-3.656,0.715-4.975,1.986
			c-1.319,1.272-2.061,2.997-2.061,4.795s0.741,3.524,2.061,4.795C26.765,802.081,28.554,802.795,30.42,802.795z"/>
		<path fill="#FF5892" fill-opacity="0.502" d="M104.636,695.468c1.866,0,3.656-0.715,4.975-1.986
			c1.319-1.272,2.061-2.997,2.061-4.795s-0.741-3.524-2.061-4.795c-1.319-1.272-3.109-1.986-4.975-1.986
			c-1.866,0-3.656,0.715-4.975,1.986c-1.319,1.272-2.061,2.997-2.061,4.795s0.741,3.524,2.061,4.795
			C100.98,694.754,102.77,695.468,104.636,695.468z"/>
		<path fill="#FF5892" fill-opacity="0.502" d="M25.043,954.272c1.866,0,3.656-0.715,4.975-1.986s2.061-2.997,2.061-4.795
			c0-1.799-0.741-3.524-2.061-4.795s-3.109-1.986-4.975-1.986c-1.866,0-3.656,0.715-4.975,1.986
			c-1.319,1.272-2.061,2.997-2.061,4.795c0,1.798,0.741,3.524,2.061,4.795C21.387,953.557,23.177,954.272,25.043,954.272z"/>
		<path fill="#FF5892" fill-opacity="0.502" d="M27.012,855.982c1.866,0,3.656-0.715,4.975-1.986
			c1.319-1.272,2.061-2.997,2.061-4.795c0-1.798-0.741-3.524-2.061-4.795c-1.319-1.272-3.109-1.986-4.975-1.986
			c-1.866,0-3.656,0.715-4.975,1.986c-1.319,1.272-2.061,2.997-2.061,4.795c0,1.799,0.741,3.524,2.061,4.795
			C23.357,855.268,25.146,855.982,27.012,855.982z"/>
		<path fill="#FF5892" fill-opacity="0.502" d="M62.57,817.602c1.866,0,3.656-0.715,4.975-1.986
			c1.319-1.272,2.061-2.997,2.061-4.795c0-1.798-0.741-3.524-2.061-4.795c-1.319-1.272-3.109-1.986-4.975-1.986
			c-1.866,0-3.656,0.715-4.975,1.986c-1.319,1.272-2.061,2.997-2.061,4.795c0,1.799,0.741,3.524,2.061,4.795
			C58.914,816.887,60.704,817.602,62.57,817.602z"/>
		<path fill="#FF5892" fill-opacity="0.502" d="M32.433,868.704c1.866,0,3.656-0.715,4.975-1.986
			c1.319-1.272,2.061-2.997,2.061-4.795s-0.741-3.524-2.061-4.795c-1.319-1.272-3.109-1.986-4.975-1.986
			c-1.866,0-3.656,0.715-4.975,1.986c-1.319,1.272-2.061,2.997-2.061,4.795s0.741,3.524,2.061,4.795
			C28.777,867.989,30.567,868.704,32.433,868.704z"/>
		<path fill="#FF5892" fill-opacity="0.502" d="M32.384,801.549c1.866,0,3.656-0.715,4.975-1.986s2.061-2.997,2.061-4.795
			s-0.741-3.524-2.061-4.795s-3.109-1.986-4.975-1.986c-1.866,0-3.656,0.715-4.975,1.986c-1.319,1.272-2.061,2.997-2.061,4.795
			s0.741,3.524,2.061,4.795C28.728,800.835,30.518,801.549,32.384,801.549z"/>
		<path fill="#FF5892" fill-opacity="0.502" d="M43.999,873.003c1.866,0,3.656-0.715,4.975-1.986
			c1.319-1.272,2.061-2.997,2.061-4.795s-0.741-3.524-2.061-4.795c-1.319-1.272-3.109-1.986-4.975-1.986
			c-1.866,0-3.656,0.715-4.975,1.986c-1.319,1.272-2.061,2.997-2.061,4.795s0.741,3.524,2.061,4.795
			C40.343,872.289,42.133,873.003,43.999,873.003z"/>
		<path fill="#FF5892" fill-opacity="0.502" d="M26.715,862.843c1.866,0,3.656-0.715,4.975-1.986
			c1.319-1.272,2.061-2.997,2.061-4.795c0-1.798-0.741-3.524-2.061-4.795s-3.109-1.986-4.975-1.986
			c-1.866,0-3.656,0.715-4.975,1.986c-1.319,1.272-2.061,2.997-2.061,4.795c0,1.799,0.741,3.524,2.061,4.795
			C23.059,862.128,24.849,862.843,26.715,862.843z"/>
		<path fill="#FF5892" fill-opacity="0.502" d="M27.061,835.346c1.866,0,3.656-0.715,4.975-1.986
			c1.319-1.272,2.061-2.997,2.061-4.795c0-1.799-0.741-3.524-2.061-4.795c-1.319-1.272-3.109-1.986-4.975-1.986
			c-1.866,0-3.656,0.715-4.975,1.986c-1.319,1.272-2.061,2.997-2.061,4.795c0,1.799,0.741,3.524,2.061,4.795
			S25.195,835.346,27.061,835.346z"/>
		<path fill="#FF5892" fill-opacity="0.502" d="M51.892,684.793c1.866,0,3.656-0.715,4.975-1.986
			c1.319-1.272,2.061-2.997,2.061-4.795s-0.741-3.524-2.061-4.795c-1.319-1.272-3.109-1.986-4.975-1.986
			c-1.866,0-3.656,0.715-4.975,1.986c-1.319,1.272-2.061,2.997-2.061,4.795s0.741,3.524,2.061,4.795
			C48.236,684.078,50.026,684.793,51.892,684.793z"/>
		<path fill="#FF5892" fill-opacity="0.502" d="M27.012,877.334c1.866,0,3.656-0.715,4.975-1.986
			c1.319-1.272,2.061-2.997,2.061-4.795c0-1.798-0.741-3.524-2.061-4.795c-1.319-1.272-3.109-1.986-4.975-1.986
			c-1.866,0-3.656,0.715-4.975,1.986c-1.319,1.272-2.061,2.997-2.061,4.795c0,1.799,0.741,3.524,2.061,4.795
			C23.357,876.619,25.146,877.334,27.012,877.334z"/>
		<path fill="#FF5892" fill-opacity="0.502" d="M27.845,925.975c1.866,0,3.656-0.715,4.975-1.986
			c1.319-1.272,2.061-2.997,2.061-4.795c0-1.798-0.741-3.524-2.061-4.795c-1.319-1.272-3.109-1.986-4.975-1.986
			c-1.866,0-3.656,0.715-4.975,1.986c-1.319,1.272-2.061,2.997-2.061,4.795c0,1.799,0.741,3.524,2.061,4.795
			C24.19,925.26,25.979,925.975,27.845,925.975z"/>
		<path fill="#FF5892" fill-opacity="0.502" d="M26.277,909.253c1.866,0,3.656-0.715,4.975-1.986
			c1.319-1.272,2.061-2.997,2.061-4.795c0-1.798-0.741-3.524-2.061-4.795s-3.109-1.986-4.975-1.986
			c-1.866,0-3.656,0.715-4.975,1.986s-2.061,2.997-2.061,4.795c0,1.799,0.741,3.524,2.061,4.795
			C22.621,908.539,24.411,909.253,26.277,909.253z"/>
	</g>
	<g id="path-2_00000093865788014625769120000003646137588221565884_">
		<path fill="none" stroke="#000000" stroke-miterlimit="10" d="M407.623,249.54c-4.208,1.335-8.689,2.055-13.338,2.055
			c-24.331,0-44.055-19.724-44.055-44.055c0-13.062,5.684-24.796,14.714-32.863"/>
		<g>
			<polygon points="365.113,179.386 364.028,175.511 360.486,173.603 369.653,171.01 			"/>
		</g>
	</g>
</g>
<style>
#g-countries-Artboard_3-interactions-img rect, #g-countries-Artboard_3-interactions-img circle, #g-countries-Artboard_3-interactions-img path, #g-countries-Artboard_3-interactions-img line, #g-countries-Artboard_3-interactions-img polyline, #g-countries-Artboard_3-interactions-img polygon { vector-effect: non-scaling-stroke; }
</style>
</svg>

